<?xml version="1.0" encoding="utf-8"?>
<!-- Generator: Adobe Illustrator 15.0.0, SVG Export Plug-In . SVG Version: 6.00 Build 0)  -->
<!DOCTYPE svg PUBLIC "-//W3C//DTD SVG 1.1//EN" "http://www.w3.org/Graphics/SVG/1.1/DTD/svg11.dtd">
<svg version="1.1" id="레이어_1" xmlns="http://www.w3.org/2000/svg" xmlns:xlink="http://www.w3.org/1999/xlink" x="0px"
	 y="0px" width="341.443px" height="72.241px" viewBox="0.572 -9.438 341.443 72.241"
	 enable-background="new 0.572 -9.438 341.443 72.241" xml:space="preserve">
<g>
	<path fill="#231815" d="M45.132-8.408l-4.495-1.03l-4.853,0.56l-7.84,1.68l-5.787,2.054l-5.414,2.426l-3.92,5.6l-3.92,6.347
		l-2.8,7.84c0,0-0.934,16.053,1.867,19.226c0,0-7.093-7.279-1.12-26.693c0,0,2.987-6.72,5.04-8.96c0,0-2.8-0.373-8.773,11.2
		c0,0-5.041,13.813-0.934,23.146c0,0,0.187,3.361,5.04,9.895c0,0,7.467,10.453,10.267,11.946l2.426,2.24l2.24,0.747l3.173,1.866
		c0,0,3.173,0.373,3.733,0.373s3.173,0.001,3.92,0.374s3.733,0.373,3.733,0.373l2.987-0.188l2.427-1.492l2.24-1.494l4.293-0.746
		l2.613-0.373l2.053-1.121l2.054-1.307l2.8-1.119l3.547-1.494l2.8-1.307l2.24-0.746l0.373-1.307l3.36-2.801l3.173-2.613l2.8-2.426
		l0.56-2.054l0.374-1.493l0.747-1.307l1.867-0.934l0.933,0.746l0.934-0.56l1.493-2.613l0.747-3.173c0,0,0.747-5.601-2.24-7.467
		l-4.107-1.68l-3.546-0.56l-1.307,0.934l-0.187,2.24l-1.68,0.374l-1.68-0.56l-0.747,0.56l-1.494,0.187l-1.867,1.494l-1.68,3.359
		l-1.12,2.054l-0.934,3.173l-0.187,1.494l1.307,2.053l-1.307,1.494l-2.613,1.307l-0.933,1.68l-0.747,3.174
		c0,0-0.747,1.866-2.8,2.986l-2.427,1.12l-3.36,1.307l-3.733,1.307l-2.613,0.747l-8.96-1.121c0,0-7.466-2.986-8.026-3.92
		l-4.667-4.479l-4.48-4.854c0,0-4.667-6.347-5.04-9.521c0,0-2.054-8.586-0.56-13.626c0,0,1.494-12.133,10.267-17.36
		c0,0,8.675-6.881,20.249-5.761l3.394-0.597L45.132-8.408z"/>
	<circle fill="#B51A86" cx="37.31" cy="22.357" r="22.796"/>
	<path fill="#FFFFFF" d="M22.18,10.384c3.611-4.195,9.197-6.833,15.313-6.833c10.873,0,19.688,8.451,19.688,18.875
		c0,9.7-7.553,17.854-17.375,18.916l0.001,0.065c10.777-0.452,19.374-9.196,19.374-19.919c0-11.011-9.066-19.938-20.25-19.938
		c-7.017,0-13.201,3.515-16.834,8.852L22.18,10.384z"/>
	<path fill="#FFFFFF" d="M25.305,12.551c2.946-3.44,7.445-5.526,12.433-5.526c8.87,0,16.061,6.931,16.061,15.481
		c0,7.956-6.148,14.631-14.161,15.504l-0.012,0.064c8.791-0.371,16.179-7.544,16.179-16.337c0-9.032-7.771-16.353-16.893-16.353
		c-5.725,0-10.768,2.883-13.733,7.261L25.305,12.551z"/>
	<path fill="#FFFFFF" d="M49.646,29.105l-0.398,0.473c2.474-1.527,3.891-4.986,3.766-7.777c0,0-0.125-4.125-2.125-6.25
		C50.888,15.551,54.479,22.689,49.646,29.105z"/>
	<g>
		<path fill="#FFFFFF" d="M16.251,17.265h2.625v3.726l2.739-3.726h3.479l-3.084,3.711l3.225,6.148h-3.233l-1.77-4.034l-1.357,1.657
			v2.377h-2.625V17.265z"/>
		<path fill="#FFFFFF" d="M31.335,25.5h-2.968l-0.424,1.625h-2.68l3.169-9.859h2.888l3.177,9.859H31.76L31.335,25.5z M30.776,23.359
			l-0.927-3.541l-0.923,3.541H30.776z"/>
		<path fill="#FFFFFF" d="M35.324,17.265h4.35c0.95,0,1.661,0.263,2.131,0.787c0.471,0.525,0.706,1.271,0.706,2.24
			c0,0.996-0.257,1.774-0.771,2.335s-1.3,0.841-2.359,0.841h-1.433v3.656h-2.625V17.265z M37.949,21.469h0.64
			c0.508,0,0.864-0.102,1.068-0.307c0.205-0.204,0.307-0.466,0.307-0.785c0-0.31-0.089-0.572-0.267-0.788
			c-0.177-0.215-0.511-0.323-1.001-0.323h-0.748V21.469z"/>
		<path fill="#FFFFFF" d="M43.444,23.869l2.484-0.182c0.053,0.47,0.163,0.828,0.328,1.074c0.267,0.398,0.65,0.598,1.149,0.598
			c0.37,0,0.656-0.102,0.859-0.306c0.203-0.204,0.304-0.44,0.304-0.71c0-0.255-0.095-0.484-0.285-0.686
			c-0.189-0.202-0.636-0.393-1.338-0.572c-1.146-0.3-1.963-0.7-2.451-1.198c-0.492-0.498-0.738-1.134-0.738-1.906
			c0-0.507,0.125-0.986,0.375-1.438s0.629-0.806,1.137-1.064s1.2-0.387,2.077-0.387c1.082,0,1.907,0.234,2.476,0.704
			c0.568,0.469,0.906,1.215,1.013,2.238l-2.469,0.167c-0.067-0.442-0.205-0.763-0.414-0.964c-0.209-0.201-0.496-0.302-0.86-0.302
			c-0.302,0-0.53,0.075-0.684,0.226c-0.153,0.15-0.23,0.333-0.23,0.548c0,0.157,0.062,0.298,0.186,0.423
			c0.124,0.13,0.417,0.251,0.877,0.363c1.142,0.287,1.959,0.578,2.454,0.871s0.855,0.658,1.081,1.093s0.339,0.921,0.339,1.459
			c0,0.632-0.15,1.215-0.45,1.749s-0.72,0.938-1.259,1.214s-1.218,0.414-2.037,0.414c-1.441,0-2.438-0.322-2.99-0.968
			S43.515,24.864,43.444,23.869z"/>
	</g>
	<g>
		<path fill="#231815" d="M93.352,53.121c0.433,0,0.729-0.034,0.89-0.104c0.257-0.114,0.451-0.372,0.58-0.772l2.098-6.577
			c-0.704-0.004-1.307,0.142-1.808,0.438s-0.918,0.735-1.249,1.314l-0.366-0.083l0.546-2.104h7.784l-0.511,2.36l-0.373-0.027
			c-0.023-0.801-0.281-1.346-0.773-1.636c-0.267-0.161-0.663-0.249-1.187-0.263l-1.981,6.267l-0.117,0.421
			c-0.014,0.06-0.023,0.107-0.027,0.142c-0.005,0.034-0.007,0.07-0.007,0.106c0,0.212,0.076,0.345,0.228,0.397
			s0.469,0.093,0.952,0.12v0.311h-4.679V53.121z"/>
		<path fill="#231815" d="M101.595,53.438l2.174-6.942c0.023-0.078,0.048-0.172,0.076-0.279c0.028-0.108,0.042-0.195,0.042-0.26
			c0-0.184-0.067-0.296-0.2-0.338c-0.133-0.041-0.361-0.058-0.683-0.048V45.24c0.686-0.061,1.151-0.105,1.397-0.135
			c0.246-0.03,0.763-0.107,1.549-0.231l-1.504,5.024l0.028,0.014c-0.046,0.037-0.022,0,0.072-0.11s0.236-0.271,0.424-0.483
			c0.423-0.479,0.825-0.852,1.205-1.118c0.379-0.267,0.788-0.4,1.225-0.4c0.331,0,0.595,0.08,0.79,0.238
			c0.196,0.159,0.293,0.397,0.293,0.714c0,0.134-0.016,0.266-0.048,0.395s-0.115,0.37-0.248,0.724l-0.946,2.533
			c-0.014,0.056-0.021,0.092-0.021,0.11c0,0.064,0.023,0.115,0.069,0.152c0.046,0.036,0.099,0.055,0.159,0.055
			c0.124,0,0.311-0.131,0.559-0.394c0.124-0.138,0.294-0.347,0.511-0.628l0.311,0.187c-0.428,0.562-0.766,0.948-1.015,1.159
			c-0.414,0.354-0.855,0.531-1.325,0.531c-0.258,0-0.482-0.065-0.673-0.196s-0.287-0.337-0.287-0.618
			c0-0.179,0.046-0.425,0.138-0.738c0.092-0.313,0.214-0.662,0.366-1.049l0.718-1.829c0.009-0.027,0.017-0.056,0.024-0.086
			s0.01-0.059,0.01-0.086c0-0.12-0.037-0.196-0.11-0.231c-0.074-0.034-0.149-0.052-0.228-0.052c-0.281,0-0.61,0.198-0.987,0.594
			c-0.377,0.396-0.679,0.775-0.904,1.139c-0.23,0.372-0.458,0.847-0.683,1.421c-0.124,0.332-0.311,0.863-0.559,1.595H101.595z"/>
		<path fill="#231815" d="M110.887,49.07c0.847-0.859,1.776-1.29,2.788-1.29c0.437,0,0.799,0.095,1.087,0.283
			s0.432,0.453,0.432,0.794c0,0.52-0.336,1.011-1.008,1.473c-0.672,0.463-1.543,0.758-2.616,0.887
			c-0.027,0.125-0.048,0.241-0.062,0.349c-0.014,0.108-0.021,0.194-0.021,0.259c0,0.254,0.041,0.451,0.124,0.594
			c0.147,0.267,0.43,0.4,0.849,0.4c0.34,0,0.678-0.152,1.014-0.455c0.18-0.156,0.373-0.378,0.58-0.663l0.414,0.207
			c-0.354,0.516-0.688,0.893-1.001,1.132c-0.497,0.387-1.079,0.58-1.746,0.58c-0.497,0-0.965-0.158-1.404-0.473
			c-0.439-0.315-0.659-0.793-0.659-1.433C109.658,50.789,110.068,49.908,110.887,49.07z M113.82,48.329
			c-0.06-0.099-0.168-0.148-0.324-0.148c-0.332,0-0.657,0.231-0.977,0.693c-0.32,0.463-0.604,1.112-0.853,1.95
			c0.814-0.161,1.392-0.47,1.732-0.925c0.34-0.456,0.511-0.86,0.511-1.215C113.91,48.547,113.88,48.427,113.82,48.329z"/>
		<path fill="#231815" d="M125.02,45.233v0.317c-0.451,0.046-0.757,0.117-0.918,0.214s-0.297,0.32-0.407,0.67l-0.855,2.705
			l0.069,0.014l1.912-1.463c0.506-0.387,0.89-0.697,1.153-0.932c0.478-0.419,0.717-0.711,0.717-0.877
			c0-0.133-0.092-0.225-0.276-0.275c-0.106-0.028-0.276-0.046-0.511-0.056v-0.317h2.975v0.317c-0.216,0.01-0.391,0.037-0.524,0.083
			c-0.216,0.083-0.483,0.248-0.801,0.497l-3.057,2.429l2.222,4.141c0.087,0.157,0.193,0.263,0.317,0.317
			c0.124,0.056,0.313,0.09,0.566,0.104v0.311h-3.961v-0.311c0.336-0.014,0.573-0.04,0.711-0.079s0.207-0.13,0.207-0.272
			c0-0.037-0.013-0.098-0.038-0.183s-0.072-0.19-0.141-0.314l-1.519-2.822l-0.117-0.028l-0.787,2.513
			c-0.032,0.097-0.064,0.216-0.097,0.358s-0.048,0.254-0.048,0.332c0,0.184,0.087,0.313,0.262,0.386
			c0.11,0.046,0.333,0.083,0.669,0.11v0.311h-4.106v-0.311c0.354-0.031,0.608-0.105,0.762-0.221s0.282-0.333,0.383-0.655l1.732-5.5
			c0.037-0.124,0.071-0.249,0.104-0.373s0.048-0.223,0.048-0.297c0-0.207-0.067-0.338-0.2-0.394
			c-0.133-0.055-0.412-0.099-0.835-0.131v-0.317H125.02z"/>
		<path fill="#231815" d="M134.208,48.072c0.663,0.331,0.994,0.888,0.994,1.67c0,0.869-0.382,1.714-1.146,2.533
			c-0.833,0.893-1.785,1.338-2.857,1.338c-0.548,0-1.066-0.148-1.557-0.445c-0.49-0.296-0.735-0.794-0.735-1.494
			c0-0.873,0.379-1.72,1.139-2.539c0.833-0.893,1.792-1.339,2.878-1.339C133.403,47.796,133.83,47.887,134.208,48.072z
			 M130.681,52.888c0.115,0.226,0.331,0.338,0.648,0.338c0.589,0,1.118-0.586,1.587-1.76c0.391-0.984,0.586-1.835,0.586-2.553
			c0-0.193-0.027-0.343-0.083-0.449c-0.106-0.202-0.304-0.303-0.594-0.303c-0.676,0-1.245,0.623-1.705,1.87
			c-0.354,0.947-0.531,1.734-0.531,2.36C130.592,52.603,130.621,52.769,130.681,52.888z"/>
		<path fill="#231815" d="M135.724,53.433c0.414-1.168,0.752-2.173,1.015-3.016c0.285-0.901,0.428-1.439,0.428-1.614
			c0-0.152-0.058-0.25-0.172-0.294c-0.115-0.043-0.313-0.065-0.594-0.065V48.12c0.589-0.032,1.086-0.073,1.491-0.124
			c0.262-0.032,0.708-0.099,1.339-0.2l-0.787,2.167l0.062,0.014c0.405-0.676,0.729-1.157,0.973-1.442
			c0.428-0.492,0.839-0.738,1.235-0.738c0.276,0,0.479,0.079,0.611,0.238c0.131,0.159,0.197,0.337,0.197,0.534
			c0,0.235-0.073,0.445-0.218,0.632s-0.346,0.279-0.604,0.279c-0.115,0-0.222-0.02-0.321-0.059
			c-0.099-0.039-0.183-0.098-0.251-0.176l-0.131-0.145c-0.023-0.023-0.047-0.043-0.073-0.059c-0.025-0.017-0.059-0.024-0.1-0.024
			c-0.18,0-0.414,0.211-0.704,0.631c-0.29,0.422-0.534,0.853-0.731,1.295c-0.138,0.303-0.309,0.734-0.511,1.294
			c-0.203,0.559-0.352,0.958-0.449,1.196H135.724z"/>
		<path fill="#231815" d="M142.688,49.07c0.846-0.859,1.776-1.29,2.788-1.29c0.437,0,0.799,0.095,1.087,0.283
			s0.431,0.453,0.431,0.794c0,0.52-0.336,1.011-1.007,1.473c-0.672,0.463-1.544,0.758-2.616,0.887
			c-0.028,0.125-0.048,0.241-0.062,0.349c-0.014,0.108-0.021,0.194-0.021,0.259c0,0.254,0.042,0.451,0.125,0.594
			c0.147,0.267,0.43,0.4,0.849,0.4c0.34,0,0.679-0.152,1.015-0.455c0.179-0.156,0.373-0.378,0.58-0.663l0.414,0.207
			c-0.354,0.516-0.688,0.893-1,1.132c-0.497,0.387-1.079,0.58-1.746,0.58c-0.497,0-0.965-0.158-1.405-0.473
			c-0.439-0.315-0.659-0.793-0.659-1.433C141.459,50.789,141.868,49.908,142.688,49.07z M145.62,48.329
			c-0.06-0.099-0.168-0.148-0.324-0.148c-0.331,0-0.657,0.231-0.977,0.693c-0.32,0.463-0.604,1.112-0.852,1.95
			c0.814-0.161,1.392-0.47,1.732-0.925c0.34-0.456,0.511-0.86,0.511-1.215C145.71,48.547,145.68,48.427,145.62,48.329z"/>
		<path fill="#231815" d="M148.74,49.236c0.855-0.971,1.725-1.456,2.608-1.456c0.359,0,0.624,0.092,0.794,0.276
			c0.101,0.11,0.191,0.297,0.269,0.559l0.242-0.648l1.573-0.09l-1,2.863c-0.143,0.41-0.244,0.723-0.304,0.939
			c-0.125,0.409-0.187,0.701-0.187,0.876c0,0.074,0.019,0.124,0.055,0.152c0.037,0.027,0.078,0.041,0.125,0.041
			c0.083,0,0.163-0.027,0.241-0.083c0.078-0.055,0.166-0.131,0.262-0.228c0.046-0.046,0.125-0.13,0.235-0.252
			s0.202-0.224,0.276-0.308l0.297,0.188c-0.382,0.487-0.747,0.868-1.094,1.142c-0.348,0.273-0.698,0.411-1.052,0.411
			c-0.216,0-0.426-0.069-0.628-0.207c-0.202-0.139-0.303-0.344-0.303-0.615c0-0.105,0.06-0.358,0.179-0.759
			c0.019-0.019,0.001,0.009-0.052,0.079c-0.053,0.072-0.135,0.179-0.245,0.321c-0.249,0.327-0.542,0.604-0.88,0.831
			c-0.338,0.229-0.714,0.342-1.128,0.342c-0.373,0-0.72-0.122-1.042-0.365c-0.322-0.244-0.483-0.658-0.483-1.242
			C147.498,51.101,147.912,50.179,148.74,49.236z M152.011,48.566c-0.087-0.179-0.25-0.269-0.49-0.269
			c-0.511,0-1.036,0.524-1.574,1.573c-0.474,0.93-0.71,1.641-0.71,2.133c0,0.197,0.056,0.368,0.169,0.511s0.261,0.214,0.445,0.214
			c0.469,0.005,1.001-0.533,1.594-1.615c0.423-0.906,0.635-1.624,0.635-2.153C152.08,48.799,152.057,48.668,152.011,48.566z"/>
		<path fill="#231815" d="M154.783,53.433l1.263-3.912c0.05-0.156,0.087-0.281,0.11-0.373c0.046-0.175,0.069-0.294,0.069-0.358
			c0-0.147-0.053-0.239-0.159-0.276s-0.311-0.06-0.614-0.069V48.12c0.589-0.032,1.047-0.067,1.374-0.106s0.814-0.111,1.463-0.218
			l-0.855,2.264l0.034,0.021c-0.023,0.019,0.115-0.164,0.414-0.549c0.299-0.384,0.584-0.695,0.856-0.935
			c0.267-0.244,0.546-0.438,0.838-0.583c0.292-0.146,0.599-0.218,0.921-0.218c0.299,0,0.553,0.073,0.763,0.221
			c0.209,0.147,0.314,0.389,0.314,0.725c0,0.309-0.207,0.994-0.621,2.057c-0.419,1.059-0.628,1.624-0.628,1.698
			c0,0.073,0.025,0.129,0.076,0.165c0.051,0.037,0.101,0.056,0.152,0.056c0.124,0,0.308-0.136,0.552-0.407
			c0.129-0.143,0.269-0.319,0.421-0.532l0.311,0.173c-0.35,0.493-0.646,0.847-0.89,1.063c-0.423,0.372-0.872,0.559-1.346,0.559
			c-0.253,0-0.48-0.064-0.68-0.193s-0.3-0.331-0.3-0.607c0-0.175,0.048-0.43,0.145-0.766s0.214-0.681,0.352-1.035l0.704-1.829
			c0.014-0.046,0.025-0.085,0.034-0.117s0.014-0.064,0.014-0.097c0-0.092-0.036-0.155-0.107-0.189
			c-0.071-0.035-0.148-0.052-0.231-0.052c-0.29,0-0.612,0.194-0.966,0.583c-0.354,0.389-0.645,0.776-0.87,1.162
			c-0.244,0.42-0.449,0.845-0.614,1.277s-0.363,1.008-0.593,1.725H154.783z"/>
		<path fill="#231815" d="M164.562,53.151c0.263-0.069,0.456-0.143,0.58-0.221c0.184-0.115,0.389-0.331,0.614-0.648l5.244-7.205
			h0.366l1.353,7.012c0.092,0.469,0.202,0.757,0.331,0.862c0.129,0.106,0.412,0.173,0.849,0.2v0.29h-4.285v-0.29
			c0.405-0.027,0.691-0.084,0.859-0.169s0.252-0.264,0.252-0.535c0-0.092-0.025-0.313-0.076-0.662
			c-0.009-0.069-0.055-0.366-0.138-0.891h-3.043l-0.828,1.242c-0.055,0.088-0.105,0.181-0.148,0.279
			c-0.044,0.1-0.065,0.195-0.065,0.287c0,0.166,0.059,0.272,0.176,0.32c0.117,0.049,0.362,0.092,0.735,0.128v0.29h-2.774V53.151z
			 M170.415,50.412l-0.524-2.981l-2.091,2.981H170.415z"/>
		<path fill="#231815" d="M175.284,51.576l0.373,0.021c0.068,0.603,0.246,1.026,0.531,1.27c0.285,0.244,0.566,0.366,0.842,0.366
			c0.239,0,0.431-0.065,0.573-0.197c0.143-0.131,0.214-0.286,0.214-0.465c0-0.166-0.063-0.347-0.189-0.542
			c-0.127-0.195-0.275-0.386-0.445-0.569l-0.525-0.566c-0.229-0.216-0.425-0.468-0.586-0.756c-0.161-0.287-0.242-0.573-0.242-0.859
			c0-0.408,0.178-0.761,0.532-1.055c0.354-0.295,0.835-0.442,1.442-0.442c0.248,0,0.51,0.046,0.786,0.138
			c0.276,0.093,0.458,0.139,0.546,0.139c0.109,0,0.193-0.021,0.248-0.065s0.105-0.107,0.152-0.19h0.406l-0.324,1.871l-0.379-0.028
			c-0.088-0.52-0.25-0.894-0.487-1.121c-0.236-0.228-0.486-0.342-0.748-0.342c-0.263,0-0.455,0.067-0.577,0.204
			c-0.121,0.135-0.183,0.286-0.183,0.451c0,0.143,0.045,0.283,0.135,0.422c0.09,0.138,0.264,0.347,0.521,0.627l0.689,0.767
			c0.152,0.17,0.288,0.374,0.407,0.61c0.12,0.237,0.18,0.473,0.18,0.708c0,0.497-0.205,0.896-0.614,1.197
			c-0.409,0.301-0.909,0.452-1.497,0.452c-0.249,0-0.515-0.044-0.798-0.132c-0.282-0.087-0.454-0.131-0.514-0.131
			c-0.115,0-0.202,0.026-0.263,0.079c-0.06,0.053-0.107,0.114-0.145,0.184h-0.373L175.284,51.576z"/>
		<path fill="#231815" d="M180.784,51.576l0.373,0.021c0.068,0.603,0.246,1.026,0.531,1.27c0.285,0.244,0.566,0.366,0.842,0.366
			c0.24,0,0.431-0.065,0.573-0.197c0.143-0.131,0.214-0.286,0.214-0.465c0-0.166-0.063-0.347-0.189-0.542
			c-0.127-0.195-0.275-0.386-0.445-0.569l-0.525-0.566c-0.229-0.216-0.425-0.468-0.586-0.756c-0.161-0.287-0.242-0.573-0.242-0.859
			c0-0.408,0.178-0.761,0.532-1.055c0.354-0.295,0.835-0.442,1.442-0.442c0.248,0,0.51,0.046,0.787,0.138
			c0.275,0.093,0.457,0.139,0.545,0.139c0.109,0,0.193-0.021,0.248-0.065s0.105-0.107,0.152-0.19h0.406l-0.324,1.871l-0.379-0.028
			c-0.088-0.52-0.25-0.894-0.486-1.121c-0.237-0.228-0.486-0.342-0.749-0.342s-0.454,0.067-0.577,0.204
			c-0.121,0.135-0.182,0.286-0.182,0.451c0,0.143,0.044,0.283,0.134,0.422c0.09,0.138,0.264,0.347,0.521,0.627l0.69,0.767
			c0.151,0.17,0.287,0.374,0.406,0.61c0.12,0.237,0.18,0.473,0.18,0.708c0,0.497-0.205,0.896-0.614,1.197
			c-0.409,0.301-0.909,0.452-1.497,0.452c-0.249,0-0.515-0.044-0.797-0.132c-0.283-0.087-0.455-0.131-0.515-0.131
			c-0.115,0-0.202,0.026-0.263,0.079c-0.06,0.053-0.107,0.114-0.145,0.184h-0.373L180.784,51.576z"/>
		<path fill="#231815" d="M191.415,48.072c0.662,0.331,0.994,0.888,0.994,1.67c0,0.869-0.383,1.714-1.146,2.533
			c-0.832,0.893-1.785,1.338-2.856,1.338c-0.548,0-1.066-0.148-1.557-0.445c-0.489-0.296-0.735-0.794-0.735-1.494
			c0-0.873,0.38-1.72,1.139-2.539c0.833-0.893,1.793-1.339,2.879-1.339C190.61,47.796,191.038,47.887,191.415,48.072z
			 M187.888,52.888c0.114,0.226,0.331,0.338,0.648,0.338c0.589,0,1.118-0.586,1.587-1.76c0.392-0.984,0.587-1.835,0.587-2.553
			c0-0.193-0.027-0.343-0.083-0.449c-0.105-0.202-0.304-0.303-0.594-0.303c-0.676,0-1.244,0.623-1.704,1.87
			c-0.354,0.947-0.531,1.734-0.531,2.36C187.799,52.603,187.829,52.769,187.888,52.888z"/>
		<path fill="#231815" d="M194.415,49.043c0.847-0.842,1.768-1.263,2.761-1.263c0.528,0,0.929,0.112,1.197,0.338
			s0.403,0.481,0.403,0.767c0,0.262-0.09,0.471-0.269,0.624c-0.18,0.154-0.392,0.231-0.635,0.231c-0.185,0-0.364-0.055-0.538-0.166
			c-0.176-0.109-0.263-0.273-0.263-0.49c0-0.087,0.011-0.154,0.031-0.203c0.021-0.048,0.065-0.123,0.134-0.225l0.063-0.09
			c0.032-0.041,0.055-0.074,0.066-0.1c0.011-0.025,0.017-0.052,0.017-0.079c0-0.064-0.036-0.116-0.11-0.155
			s-0.161-0.059-0.262-0.059c-0.507,0-0.987,0.455-1.443,1.366c-0.404,0.81-0.607,1.512-0.607,2.104c0,0.271,0.061,0.509,0.18,0.711
			c0.18,0.304,0.475,0.455,0.884,0.455c0.304,0,0.595-0.096,0.873-0.289s0.556-0.465,0.831-0.814l0.394,0.228
			c-0.456,0.548-0.83,0.927-1.124,1.139c-0.502,0.358-1.086,0.538-1.754,0.538c-0.506,0-0.979-0.156-1.418-0.469
			s-0.659-0.791-0.659-1.436C193.166,50.76,193.583,49.871,194.415,49.043z"/>
		<path fill="#231815" d="M199.538,52.266c0.031-0.124,0.08-0.288,0.145-0.49l0.85-2.753c0.008-0.033,0.017-0.064,0.023-0.098
			c0.007-0.031,0.01-0.062,0.01-0.09c0-0.165-0.059-0.268-0.179-0.307s-0.339-0.065-0.655-0.079v-0.324
			c0.266-0.014,0.654-0.046,1.162-0.097s0.869-0.095,1.08-0.131l0.607-0.098l-1.098,3.485c-0.092,0.3-0.154,0.507-0.186,0.621
			c-0.084,0.3-0.125,0.493-0.125,0.58s0.023,0.144,0.069,0.169s0.097,0.038,0.151,0.038c0.143,0,0.32-0.105,0.531-0.317
			c0.213-0.212,0.398-0.433,0.56-0.662l0.311,0.172c-0.46,0.584-0.812,0.98-1.056,1.188c-0.4,0.336-0.828,0.504-1.283,0.504
			c-0.258,0-0.489-0.069-0.693-0.207c-0.205-0.139-0.308-0.35-0.308-0.636C199.455,52.635,199.482,52.478,199.538,52.266z
			 M202.856,45.302c0.185,0.162,0.277,0.354,0.277,0.58c0,0.23-0.093,0.426-0.277,0.587c-0.184,0.161-0.406,0.241-0.668,0.241
			c-0.264,0-0.487-0.08-0.674-0.241c-0.186-0.161-0.279-0.356-0.279-0.587c0-0.226,0.094-0.418,0.279-0.58
			c0.187-0.16,0.41-0.241,0.674-0.241C202.45,45.061,202.673,45.142,202.856,45.302z"/>
		<path fill="#231815" d="M204.374,49.236c0.855-0.971,1.725-1.456,2.608-1.456c0.358,0,0.623,0.092,0.794,0.276
			c0.101,0.11,0.19,0.297,0.269,0.559l0.242-0.648l1.573-0.09l-1.001,2.863c-0.143,0.41-0.243,0.723-0.304,0.939
			c-0.124,0.409-0.186,0.701-0.186,0.876c0,0.074,0.018,0.124,0.055,0.152c0.037,0.027,0.078,0.041,0.124,0.041
			c0.083,0,0.163-0.027,0.241-0.083c0.078-0.055,0.166-0.131,0.263-0.228c0.046-0.046,0.124-0.13,0.234-0.252
			s0.202-0.224,0.276-0.308l0.297,0.188c-0.382,0.487-0.746,0.868-1.094,1.142s-0.698,0.411-1.053,0.411
			c-0.216,0-0.426-0.069-0.628-0.207c-0.202-0.139-0.304-0.344-0.304-0.615c0-0.105,0.061-0.358,0.18-0.759
			c0.019-0.019,0.001,0.009-0.052,0.079c-0.054,0.072-0.135,0.179-0.245,0.321c-0.248,0.327-0.542,0.604-0.88,0.831
			c-0.339,0.229-0.714,0.342-1.128,0.342c-0.373,0-0.721-0.122-1.043-0.365c-0.322-0.244-0.482-0.658-0.482-1.242
			C203.132,51.101,203.546,50.179,204.374,49.236z M207.645,48.566c-0.088-0.179-0.251-0.269-0.49-0.269
			c-0.511,0-1.035,0.524-1.574,1.573c-0.474,0.93-0.71,1.641-0.71,2.133c0,0.197,0.056,0.368,0.169,0.511
			c0.112,0.143,0.261,0.214,0.445,0.214c0.469,0.005,1-0.533,1.594-1.615c0.424-0.906,0.635-1.624,0.635-2.153
			C207.714,48.799,207.69,48.668,207.645,48.566z"/>
		<path fill="#231815" d="M210.352,52.397c0.029-0.136,0.091-0.347,0.184-0.632l1.063-3.326h-0.719v-0.421
			c0.465-0.165,0.856-0.345,1.174-0.538c0.561-0.346,1.03-0.787,1.408-1.325h0.51l-0.559,1.773h1.015v0.511h-1.181l-0.91,2.836
			c-0.083,0.254-0.147,0.463-0.193,0.629c-0.078,0.289-0.117,0.487-0.117,0.593c0,0.079,0.026,0.13,0.079,0.152
			s0.098,0.034,0.135,0.034c0.134,0,0.305-0.1,0.515-0.3c0.209-0.2,0.4-0.427,0.576-0.68l0.311,0.172
			c-0.42,0.553-0.756,0.937-1.008,1.153c-0.428,0.358-0.881,0.538-1.359,0.538c-0.276,0-0.506-0.08-0.69-0.238
			c-0.185-0.159-0.276-0.36-0.276-0.604C210.307,52.642,210.323,52.533,210.352,52.397z"/>
		<path fill="#231815" d="M214.458,52.266c0.032-0.124,0.08-0.288,0.145-0.49l0.85-2.753c0.009-0.033,0.017-0.064,0.023-0.098
			c0.007-0.031,0.011-0.062,0.011-0.09c0-0.165-0.06-0.268-0.18-0.307s-0.338-0.065-0.655-0.079v-0.324
			c0.267-0.014,0.654-0.046,1.162-0.097c0.509-0.051,0.869-0.095,1.08-0.131l0.607-0.098l-1.098,3.485
			c-0.092,0.3-0.153,0.507-0.186,0.621c-0.083,0.3-0.125,0.493-0.125,0.58s0.023,0.144,0.07,0.169
			c0.045,0.025,0.096,0.038,0.151,0.038c0.143,0,0.319-0.105,0.531-0.317s0.397-0.433,0.56-0.662l0.311,0.172
			c-0.461,0.584-0.813,0.98-1.057,1.188c-0.4,0.336-0.828,0.504-1.283,0.504c-0.258,0-0.489-0.069-0.693-0.207
			c-0.205-0.139-0.308-0.35-0.308-0.636C214.375,52.635,214.403,52.478,214.458,52.266z M217.777,45.302
			c0.185,0.162,0.276,0.354,0.276,0.58c0,0.23-0.092,0.426-0.276,0.587s-0.407,0.241-0.669,0.241c-0.263,0-0.487-0.08-0.674-0.241
			c-0.186-0.161-0.279-0.356-0.279-0.587c0-0.226,0.094-0.418,0.279-0.58c0.187-0.16,0.411-0.241,0.674-0.241
			C217.37,45.061,217.593,45.142,217.777,45.302z"/>
		<path fill="#231815" d="M223.602,48.072c0.662,0.331,0.993,0.888,0.993,1.67c0,0.869-0.382,1.714-1.146,2.533
			c-0.833,0.893-1.785,1.338-2.857,1.338c-0.547,0-1.066-0.148-1.557-0.445c-0.489-0.296-0.734-0.794-0.734-1.494
			c0-0.873,0.379-1.72,1.139-2.539c0.832-0.893,1.792-1.339,2.878-1.339C222.797,47.796,223.224,47.887,223.602,48.072z
			 M220.075,52.888c0.115,0.226,0.332,0.338,0.648,0.338c0.59,0,1.119-0.586,1.588-1.76c0.391-0.984,0.586-1.835,0.586-2.553
			c0-0.193-0.027-0.343-0.082-0.449c-0.105-0.202-0.305-0.303-0.594-0.303c-0.676,0-1.244,0.623-1.705,1.87
			c-0.354,0.947-0.531,1.734-0.531,2.36C219.985,52.603,220.015,52.769,220.075,52.888z"/>
		<path fill="#231815" d="M225.337,53.433l1.264-3.912c0.05-0.156,0.087-0.281,0.11-0.373c0.046-0.175,0.068-0.294,0.068-0.358
			c0-0.147-0.053-0.239-0.158-0.276c-0.106-0.037-0.311-0.06-0.614-0.069V48.12c0.589-0.032,1.047-0.067,1.373-0.106
			c0.327-0.039,0.814-0.111,1.463-0.218l-0.855,2.264l0.034,0.021c-0.022,0.019,0.115-0.164,0.414-0.549
			c0.3-0.384,0.585-0.695,0.856-0.935c0.267-0.244,0.546-0.438,0.838-0.583c0.292-0.146,0.6-0.218,0.922-0.218
			c0.299,0,0.553,0.073,0.762,0.221c0.21,0.147,0.314,0.389,0.314,0.725c0,0.309-0.207,0.994-0.621,2.057
			c-0.419,1.059-0.628,1.624-0.628,1.698c0,0.073,0.025,0.129,0.076,0.165c0.05,0.037,0.101,0.056,0.151,0.056
			c0.124,0,0.309-0.136,0.553-0.407c0.129-0.143,0.269-0.319,0.421-0.532l0.311,0.173c-0.351,0.493-0.647,0.847-0.891,1.063
			c-0.423,0.372-0.872,0.559-1.346,0.559c-0.253,0-0.479-0.064-0.68-0.193s-0.3-0.331-0.3-0.607c0-0.175,0.048-0.43,0.145-0.766
			s0.214-0.681,0.352-1.035l0.704-1.829c0.014-0.046,0.025-0.085,0.034-0.117c0.01-0.032,0.014-0.064,0.014-0.097
			c0-0.092-0.035-0.155-0.106-0.189c-0.071-0.035-0.148-0.052-0.231-0.052c-0.289,0-0.611,0.194-0.966,0.583
			s-0.645,0.776-0.87,1.162c-0.243,0.42-0.448,0.845-0.613,1.277c-0.166,0.433-0.363,1.008-0.594,1.725H225.337z"/>
		<path fill="#231815" d="M234.637,55.684c-0.25-0.19-0.375-0.422-0.375-0.693c0-0.193,0.074-0.35,0.224-0.47
			c0.149-0.119,0.319-0.18,0.507-0.18c0.185,0,0.35,0.055,0.494,0.163c0.145,0.107,0.217,0.256,0.217,0.444
			c0,0.102-0.037,0.2-0.113,0.297s-0.113,0.164-0.113,0.2c0,0.046,0.023,0.081,0.072,0.104c0.048,0.022,0.107,0.034,0.176,0.034
			c0.354,0,0.623-0.247,0.807-0.739c0.185-0.482,0.566-1.906,1.146-4.271l0.58-2.125h-1.035l0.131-0.511h1.035
			c0.082-0.3,0.258-0.71,0.527-1.232c0.27-0.521,0.613-0.941,1.031-1.259c0.506-0.383,1.026-0.573,1.561-0.573
			c0.428,0,0.778,0.084,1.053,0.252c0.273,0.168,0.41,0.418,0.41,0.749c0,0.197-0.07,0.355-0.211,0.473s-0.307,0.176-0.5,0.176
			c-0.188,0-0.352-0.058-0.49-0.172c-0.138-0.115-0.207-0.251-0.207-0.408c0-0.11,0.038-0.222,0.114-0.334
			c0.075-0.113,0.114-0.179,0.114-0.197c0-0.027-0.017-0.064-0.049-0.11c-0.037-0.041-0.102-0.062-0.193-0.062
			c-0.258,0-0.491,0.156-0.7,0.469c-0.21,0.313-0.403,0.769-0.583,1.366l-0.263,0.863h1.312l-0.131,0.511h-1.277
			c-0.672,2.866-1.227,4.745-1.663,5.638c-0.616,1.256-1.478,1.884-2.581,1.884C235.231,55.97,234.889,55.875,234.637,55.684z"/>
		<path fill="#231815" d="M246.768,48.072c0.663,0.331,0.994,0.888,0.994,1.67c0,0.869-0.382,1.714-1.146,2.533
			c-0.833,0.893-1.785,1.338-2.856,1.338c-0.548,0-1.066-0.148-1.557-0.445c-0.49-0.296-0.734-0.794-0.734-1.494
			c0-0.873,0.379-1.72,1.139-2.539c0.832-0.893,1.791-1.339,2.877-1.339C245.964,47.796,246.391,47.887,246.768,48.072z
			 M243.243,52.888c0.114,0.226,0.33,0.338,0.648,0.338c0.589,0,1.117-0.586,1.587-1.76c0.392-0.984,0.587-1.835,0.587-2.553
			c0-0.193-0.027-0.343-0.083-0.449c-0.106-0.202-0.304-0.303-0.593-0.303c-0.678,0-1.245,0.623-1.705,1.87
			c-0.354,0.947-0.531,1.734-0.531,2.36C243.153,52.603,243.182,52.769,243.243,52.888z"/>
		<path fill="#231815" d="M248.286,53.433c0.414-1.168,0.752-2.173,1.014-3.016c0.285-0.901,0.428-1.439,0.428-1.614
			c0-0.152-0.057-0.25-0.172-0.294c-0.115-0.043-0.313-0.065-0.594-0.065V48.12c0.589-0.032,1.086-0.073,1.49-0.124
			c0.263-0.032,0.709-0.099,1.34-0.2l-0.787,2.167l0.063,0.014c0.404-0.676,0.729-1.157,0.973-1.442
			c0.428-0.492,0.84-0.738,1.235-0.738c0.276,0,0.479,0.079,0.61,0.238s0.197,0.337,0.197,0.534c0,0.235-0.072,0.445-0.218,0.632
			s-0.347,0.279-0.604,0.279c-0.115,0-0.222-0.02-0.321-0.059c-0.099-0.039-0.183-0.098-0.252-0.176l-0.131-0.145
			c-0.023-0.023-0.047-0.043-0.072-0.059c-0.025-0.017-0.059-0.024-0.1-0.024c-0.18,0-0.414,0.211-0.705,0.631
			c-0.289,0.422-0.533,0.853-0.73,1.295c-0.139,0.303-0.309,0.734-0.512,1.294c-0.202,0.559-0.352,0.958-0.448,1.196H248.286z"/>
		<path fill="#231815" d="M256.803,53.121c0.336-0.031,0.584-0.102,0.746-0.21c0.16-0.108,0.294-0.33,0.4-0.666l1.731-5.5
			c0.036-0.124,0.07-0.249,0.101-0.373c0.029-0.124,0.045-0.223,0.045-0.297c0-0.216-0.093-0.358-0.276-0.428
			c-0.12-0.041-0.37-0.073-0.753-0.097v-0.317h4.059c0.686,0,1.256,0.081,1.711,0.241c0.865,0.305,1.298,0.861,1.298,1.67
			c0,0.732-0.351,1.316-1.053,1.754c-0.702,0.437-1.611,0.655-2.729,0.655c-0.17,0-0.306-0.003-0.406-0.007
			c-0.102-0.005-0.375-0.021-0.822-0.049l-0.766,2.437l-0.117,0.421c-0.014,0.041-0.023,0.083-0.027,0.124
			c-0.005,0.042-0.008,0.083-0.008,0.124c0,0.207,0.064,0.338,0.193,0.391s0.41,0.096,0.842,0.127v0.311h-4.168V53.121z
			 M260.985,49.097c0.102,0.01,0.189,0.017,0.263,0.021c0.073,0.004,0.149,0.007,0.228,0.007c0.479,0,0.847-0.05,1.104-0.148
			s0.481-0.264,0.669-0.493c0.176-0.217,0.313-0.495,0.411-0.836c0.099-0.34,0.148-0.621,0.148-0.842
			c0-0.345-0.095-0.627-0.283-0.845c-0.188-0.219-0.506-0.328-0.952-0.328c-0.221,0-0.371,0.039-0.449,0.117
			s-0.151,0.219-0.221,0.421L260.985,49.097z"/>
		<path fill="#231815" d="M271.503,48.072c0.662,0.331,0.994,0.888,0.994,1.67c0,0.869-0.383,1.714-1.146,2.533
			c-0.832,0.893-1.785,1.338-2.856,1.338c-0.548,0-1.066-0.148-1.557-0.445c-0.489-0.296-0.735-0.794-0.735-1.494
			c0-0.873,0.38-1.72,1.139-2.539c0.833-0.893,1.793-1.339,2.879-1.339C270.698,47.796,271.126,47.887,271.503,48.072z
			 M267.976,52.888c0.114,0.226,0.331,0.338,0.648,0.338c0.589,0,1.118-0.586,1.587-1.76c0.392-0.984,0.587-1.835,0.587-2.553
			c0-0.193-0.027-0.343-0.083-0.449c-0.105-0.202-0.304-0.303-0.594-0.303c-0.676,0-1.244,0.623-1.704,1.87
			c-0.354,0.947-0.531,1.734-0.531,2.36C267.886,52.603,267.917,52.769,267.976,52.888z"/>
		<path fill="#231815" d="M273.358,52.244c0.028-0.105,0.074-0.262,0.139-0.469l1.67-5.279c0.041-0.139,0.071-0.248,0.09-0.332
			c0.019-0.082,0.027-0.153,0.027-0.213c0-0.18-0.068-0.29-0.207-0.332c-0.138-0.041-0.363-0.058-0.676-0.048V45.24
			c0.699-0.061,1.172-0.105,1.418-0.135c0.246-0.03,0.754-0.107,1.521-0.231l-2.043,6.411c-0.101,0.326-0.163,0.533-0.186,0.621
			c-0.084,0.29-0.125,0.483-0.125,0.58c0,0.082,0.025,0.138,0.076,0.165c0.051,0.028,0.097,0.042,0.139,0.042
			c0.138,0,0.313-0.104,0.527-0.311s0.404-0.431,0.569-0.67l0.311,0.173c-0.414,0.552-0.75,0.937-1.007,1.152
			c-0.429,0.358-0.885,0.538-1.367,0.538c-0.262,0-0.488-0.077-0.68-0.23c-0.191-0.154-0.286-0.358-0.286-0.611
			C273.269,52.633,273.3,52.469,273.358,52.244z"/>
		<path fill="#231815" d="M277.278,52.266c0.033-0.124,0.081-0.288,0.146-0.49l0.849-2.753c0.01-0.033,0.018-0.064,0.024-0.098
			c0.007-0.031,0.011-0.062,0.011-0.09c0-0.165-0.061-0.268-0.18-0.307s-0.338-0.065-0.656-0.079v-0.324
			c0.268-0.014,0.654-0.046,1.163-0.097s0.868-0.095,1.08-0.131l0.607-0.098l-1.097,3.485c-0.093,0.3-0.154,0.507-0.188,0.621
			c-0.082,0.3-0.123,0.493-0.123,0.58s0.022,0.144,0.068,0.169s0.097,0.038,0.152,0.038c0.143,0,0.319-0.105,0.531-0.317
			c0.211-0.212,0.397-0.433,0.559-0.662l0.311,0.172c-0.46,0.584-0.813,0.98-1.056,1.188c-0.4,0.336-0.828,0.504-1.284,0.504
			c-0.258,0-0.488-0.069-0.693-0.207c-0.205-0.139-0.307-0.35-0.307-0.636C277.196,52.635,277.223,52.478,277.278,52.266z
			 M280.598,45.302c0.184,0.162,0.275,0.354,0.275,0.58c0,0.23-0.092,0.426-0.275,0.587c-0.185,0.161-0.407,0.241-0.67,0.241
			c-0.262,0-0.486-0.08-0.673-0.241s-0.279-0.356-0.279-0.587c0-0.226,0.093-0.418,0.279-0.58c0.187-0.16,0.411-0.241,0.673-0.241
			C280.191,45.061,280.414,45.142,280.598,45.302z"/>
		<path fill="#231815" d="M282.356,49.043c0.847-0.842,1.767-1.263,2.761-1.263c0.528,0,0.928,0.112,1.197,0.338
			c0.269,0.226,0.403,0.481,0.403,0.767c0,0.262-0.09,0.471-0.27,0.624c-0.179,0.154-0.391,0.231-0.635,0.231
			c-0.184,0-0.363-0.055-0.537-0.166c-0.176-0.109-0.263-0.273-0.263-0.49c0-0.087,0.011-0.154,0.03-0.203
			c0.021-0.048,0.066-0.123,0.135-0.225l0.063-0.09c0.032-0.041,0.054-0.074,0.065-0.1s0.018-0.052,0.018-0.079
			c0-0.064-0.037-0.116-0.11-0.155c-0.074-0.039-0.162-0.059-0.263-0.059c-0.506,0-0.987,0.455-1.442,1.366
			c-0.404,0.81-0.607,1.512-0.607,2.104c0,0.271,0.061,0.509,0.18,0.711c0.18,0.304,0.474,0.455,0.883,0.455
			c0.305,0,0.596-0.096,0.873-0.289c0.279-0.193,0.557-0.465,0.832-0.814l0.394,0.228c-0.456,0.548-0.831,0.927-1.125,1.139
			c-0.501,0.358-1.086,0.538-1.753,0.538c-0.506,0-0.979-0.156-1.418-0.469s-0.659-0.791-0.659-1.436
			C281.107,50.76,281.523,49.871,282.356,49.043z"/>
		<path fill="#231815" d="M296.905,53.669l0.512-2.747l0.406,0.028c0.028,0.391,0.067,0.677,0.118,0.855
			c0.087,0.3,0.246,0.563,0.476,0.794c0.212,0.211,0.452,0.373,0.721,0.482c0.27,0.111,0.563,0.166,0.881,0.166
			c0.566,0,1.004-0.156,1.314-0.469c0.311-0.313,0.466-0.677,0.466-1.091c0-0.515-0.577-1.166-1.731-1.953
			c-1.155-0.823-1.732-1.585-1.732-2.284c0-0.658,0.254-1.218,0.762-1.681c0.509-0.462,1.219-0.693,2.129-0.693
			c0.254,0,0.514,0.022,0.78,0.069c0.175,0.027,0.329,0.06,0.462,0.096l0.359,0.104c0.078,0.02,0.158,0.035,0.242,0.049
			c0.082,0.014,0.156,0.021,0.221,0.021c0.165,0,0.291-0.029,0.379-0.089c0.088-0.061,0.164-0.134,0.229-0.222h0.42l-0.572,2.457
			l-0.373-0.042l-0.048-0.399c-0.06-0.382-0.196-0.709-0.407-0.98c-0.332-0.423-0.814-0.635-1.449-0.635
			c-0.543,0-0.939,0.171-1.188,0.511c-0.166,0.23-0.248,0.477-0.248,0.738c0,0.281,0.085,0.527,0.256,0.738
			c0.096,0.12,0.24,0.251,0.434,0.394l1.223,0.87c0.432,0.303,0.8,0.652,1.104,1.045c0.304,0.394,0.455,0.841,0.455,1.343
			c0,0.648-0.293,1.232-0.879,1.753c-0.587,0.52-1.394,0.779-2.42,0.779c-0.258,0-0.516-0.021-0.775-0.062
			c-0.26-0.042-0.518-0.102-0.77-0.18l-0.359-0.117c-0.119-0.037-0.203-0.062-0.248-0.073c-0.047-0.011-0.1-0.017-0.158-0.017
			c-0.157,0-0.269,0.033-0.336,0.1c-0.066,0.067-0.141,0.181-0.224,0.342H296.905z"/>
		<path fill="#231815" d="M304.968,52.397c0.029-0.136,0.09-0.347,0.183-0.632l1.063-3.326h-0.718v-0.421
			c0.465-0.165,0.855-0.345,1.174-0.538c0.561-0.346,1.029-0.787,1.407-1.325h0.511l-0.559,1.773h1.014v0.511h-1.18l-0.91,2.836
			c-0.084,0.254-0.148,0.463-0.193,0.629c-0.078,0.289-0.117,0.487-0.117,0.593c0,0.079,0.025,0.13,0.078,0.152
			s0.098,0.034,0.135,0.034c0.134,0,0.305-0.1,0.515-0.3c0.209-0.2,0.401-0.427,0.576-0.68l0.311,0.172
			c-0.419,0.553-0.755,0.937-1.008,1.153c-0.428,0.358-0.881,0.538-1.359,0.538c-0.276,0-0.506-0.08-0.69-0.238
			c-0.184-0.159-0.275-0.36-0.275-0.604C304.923,52.642,304.937,52.533,304.968,52.397z"/>
		<path fill="#231815" d="M309.38,52.164c0.041-0.179,0.088-0.345,0.139-0.496l0.766-2.333c0.037-0.101,0.063-0.189,0.08-0.266
			c0.016-0.076,0.023-0.153,0.023-0.231c0-0.151-0.059-0.253-0.176-0.304c-0.117-0.05-0.321-0.08-0.611-0.09V48.12
			c0.962-0.073,1.682-0.146,2.16-0.217s0.738-0.107,0.78-0.107l-0.649,1.87l-0.676,1.885c-0.032,0.087-0.068,0.204-0.11,0.352
			c-0.064,0.211-0.097,0.37-0.097,0.477c0,0.101,0.029,0.175,0.086,0.221c0.059,0.046,0.14,0.068,0.246,0.068
			c0.229,0,0.531-0.189,0.906-0.569c0.375-0.379,0.727-0.887,1.053-1.521c0.212-0.409,0.4-0.828,0.566-1.256
			c0.105-0.285,0.264-0.747,0.477-1.388h1.67l-0.573,1.705c-0.022,0.064-0.124,0.367-0.304,0.907
			c-0.18,0.541-0.287,0.864-0.324,0.97c-0.069,0.212-0.129,0.408-0.18,0.59s-0.076,0.308-0.076,0.377
			c0,0.073,0.021,0.131,0.066,0.172c0.043,0.042,0.098,0.063,0.162,0.063c0.146,0,0.345-0.139,0.594-0.414
			c0.143-0.156,0.271-0.32,0.386-0.49l0.297,0.152c-0.267,0.441-0.602,0.819-1.005,1.135c-0.402,0.315-0.817,0.473-1.245,0.473
			c-0.378,0-0.64-0.092-0.786-0.276c-0.102-0.124-0.152-0.287-0.152-0.489c0-0.198,0.019-0.366,0.055-0.504
			c0.037-0.139,0.123-0.389,0.256-0.752l-0.034-0.008c-0.58,0.718-1.013,1.196-1.298,1.436c-0.469,0.396-0.949,0.594-1.441,0.594
			c-0.24,0-0.451-0.051-0.636-0.152c-0.304-0.165-0.456-0.443-0.456-0.834C309.317,52.484,309.339,52.344,309.38,52.164z"/>
		<path fill="#231815" d="M321.099,47.924c0.11,0.056,0.229,0.141,0.358,0.256l0.629-2.016c0.014-0.041,0.022-0.081,0.027-0.12
			c0.004-0.039,0.007-0.077,0.007-0.114c0-0.143-0.051-0.24-0.151-0.293c-0.102-0.053-0.244-0.08-0.428-0.08h-0.291v-0.324
			l0.607-0.048c0.475-0.036,0.84-0.073,1.098-0.11s0.676-0.104,1.256-0.2l-1.573,4.962c-0.124,0.391-0.29,0.925-0.497,1.602
			c-0.207,0.676-0.311,1.046-0.311,1.11c0,0.061,0.018,0.104,0.053,0.132c0.033,0.027,0.076,0.041,0.127,0.041
			c0.105,0,0.252-0.098,0.438-0.293c0.188-0.195,0.35-0.391,0.487-0.584l0.311,0.201c-0.372,0.479-0.677,0.818-0.911,1.021
			c-0.41,0.359-0.808,0.538-1.193,0.538c-0.203,0-0.375-0.043-0.518-0.131c-0.227-0.133-0.338-0.356-0.338-0.669
			c0-0.056,0.012-0.147,0.037-0.276s0.061-0.289,0.107-0.482c-0.341,0.479-0.635,0.82-0.884,1.027
			c-0.433,0.363-0.911,0.545-1.435,0.545c-0.414,0-0.77-0.139-1.066-0.417s-0.445-0.693-0.445-1.245
			c0-0.875,0.418-1.783,1.256-2.727c0.855-0.961,1.714-1.442,2.574-1.442C320.688,47.786,320.911,47.832,321.099,47.924z
			 M318.514,52.52c0.109,0.134,0.255,0.2,0.439,0.2c0.557,0,1.097-0.568,1.621-1.705c0.441-0.942,0.662-1.638,0.662-2.084
			c0-0.151-0.022-0.275-0.068-0.372c-0.088-0.175-0.248-0.263-0.483-0.263c-0.524,0-1.058,0.506-1.601,1.519
			c-0.488,0.906-0.732,1.634-0.732,2.181C318.352,52.213,318.407,52.386,318.514,52.52z"/>
		<path fill="#231815" d="M324,52.266c0.032-0.124,0.081-0.288,0.146-0.49l0.848-2.753c0.01-0.033,0.018-0.064,0.024-0.098
			c0.007-0.031,0.011-0.062,0.011-0.09c0-0.165-0.061-0.268-0.18-0.307s-0.338-0.065-0.655-0.079v-0.324
			c0.267-0.014,0.654-0.046,1.163-0.097c0.508-0.051,0.867-0.095,1.08-0.131l0.607-0.098l-1.098,3.485
			c-0.092,0.3-0.154,0.507-0.187,0.621c-0.083,0.3-0.124,0.493-0.124,0.58s0.022,0.144,0.068,0.169
			c0.047,0.025,0.098,0.038,0.152,0.038c0.143,0,0.319-0.105,0.531-0.317c0.211-0.212,0.398-0.433,0.559-0.662l0.311,0.172
			c-0.46,0.584-0.813,0.98-1.056,1.188c-0.4,0.336-0.828,0.504-1.283,0.504c-0.258,0-0.489-0.069-0.694-0.207
			c-0.204-0.139-0.307-0.35-0.307-0.636C323.917,52.635,323.944,52.478,324,52.266z M327.319,45.302
			c0.184,0.162,0.275,0.354,0.275,0.58c0,0.23-0.092,0.426-0.275,0.587s-0.407,0.241-0.67,0.241c-0.262,0-0.486-0.08-0.672-0.241
			c-0.188-0.161-0.279-0.356-0.279-0.587c0-0.226,0.092-0.418,0.279-0.58c0.186-0.16,0.41-0.241,0.672-0.241
			C326.912,45.061,327.135,45.142,327.319,45.302z"/>
		<path fill="#231815" d="M329.056,49.07c0.847-0.859,1.776-1.29,2.788-1.29c0.438,0,0.799,0.095,1.087,0.283
			s0.432,0.453,0.432,0.794c0,0.52-0.336,1.011-1.008,1.473c-0.672,0.463-1.544,0.758-2.616,0.887
			c-0.027,0.125-0.048,0.241-0.062,0.349c-0.014,0.108-0.021,0.194-0.021,0.259c0,0.254,0.041,0.451,0.124,0.594
			c0.147,0.267,0.431,0.4,0.849,0.4c0.341,0,0.679-0.152,1.015-0.455c0.18-0.156,0.373-0.378,0.58-0.663l0.414,0.207
			c-0.354,0.516-0.688,0.893-1.001,1.132c-0.497,0.387-1.079,0.58-1.746,0.58c-0.497,0-0.965-0.158-1.404-0.473
			c-0.439-0.315-0.659-0.793-0.659-1.433C327.828,50.789,328.237,49.908,329.056,49.07z M331.989,48.329
			c-0.06-0.099-0.168-0.148-0.324-0.148c-0.331,0-0.656,0.231-0.977,0.693c-0.319,0.463-0.604,1.112-0.852,1.95
			c0.814-0.161,1.391-0.47,1.732-0.925c0.34-0.456,0.51-0.86,0.51-1.215C332.079,48.547,332.05,48.427,331.989,48.329z"/>
		<path fill="#231815" d="M334.286,51.576l0.373,0.021c0.069,0.603,0.246,1.026,0.531,1.27c0.285,0.244,0.566,0.366,0.842,0.366
			c0.24,0,0.431-0.065,0.573-0.197c0.143-0.131,0.214-0.286,0.214-0.465c0-0.166-0.063-0.347-0.189-0.542s-0.275-0.386-0.445-0.569
			l-0.524-0.566c-0.229-0.216-0.426-0.468-0.587-0.756c-0.161-0.287-0.241-0.573-0.241-0.859c0-0.408,0.177-0.761,0.531-1.055
			c0.354-0.295,0.835-0.442,1.442-0.442c0.248,0,0.511,0.046,0.787,0.138c0.275,0.093,0.457,0.139,0.545,0.139
			c0.11,0,0.193-0.021,0.248-0.065c0.056-0.044,0.105-0.107,0.152-0.19h0.407l-0.325,1.871l-0.379-0.028
			c-0.088-0.52-0.25-0.894-0.486-1.121c-0.237-0.228-0.486-0.342-0.749-0.342s-0.454,0.067-0.576,0.204
			c-0.122,0.135-0.183,0.286-0.183,0.451c0,0.143,0.045,0.283,0.135,0.422c0.09,0.138,0.263,0.347,0.521,0.627l0.69,0.767
			c0.151,0.17,0.287,0.374,0.406,0.61c0.12,0.237,0.18,0.473,0.18,0.708c0,0.497-0.205,0.896-0.613,1.197
			c-0.41,0.301-0.909,0.452-1.498,0.452c-0.248,0-0.514-0.044-0.797-0.132c-0.283-0.087-0.455-0.131-0.515-0.131
			c-0.114,0-0.202,0.026-0.263,0.079c-0.059,0.053-0.107,0.114-0.145,0.184h-0.373L334.286,51.576z"/>
	</g>
	<g>
		<path fill-rule="evenodd" clip-rule="evenodd" fill="#231815" d="M133.696,24.073c-0.48,0-0.96,0-1.44,0
			c-0.08,0.16-0.16,0.319-0.24,0.479c-0.64,0-1.28,0-1.92,0c0,0.16,0,0.32,0,0.48c-1.182,0.041-2.227,0.388-2.88-0.24
			c-0.08,0-0.16,0-0.24,0c0.16-0.301,0.084-1.186,0.24-1.439c0.08,0,0.16,0,0.24,0c0-0.08,0-0.16,0-0.24c0.24,0,0.48,0,0.72,0
			c0-0.16,0-0.32,0-0.48c0.32,0,0.64,0,0.96,0c0-0.16,0-0.319,0-0.479c0.72-0.08,1.44-0.16,2.16-0.24c0-0.16,0-0.32,0-0.48
			c0.917-0.023,1.001,0.049,1.2-0.72c0.16,0,0.32,0,0.48,0c0.08-0.64,0.16-1.28,0.24-1.92c-1.169,0.031-4.558,0.658-5.28,0
			c-0.08,0-0.16,0-0.24,0c0-0.08,0-0.16,0-0.24c0.158-0.068,0.865-0.187,0.96-0.24c0-0.08,0-0.16,0-0.24
			c0.443-0.312,0.459-0.399,1.2-0.48c0-0.16,0-0.32,0-0.48c0.4-0.08,0.8-0.16,1.2-0.24c0-0.16,0-0.32,0-0.48
			c1.021-0.121,1.078-0.512,1.92-0.72c0.183-0.653,0.057-0.546,0.72-0.72c0-0.16,0-0.32,0-0.48c0.16,0,0.32,0,0.48,0
			c0-0.24,0-0.48,0-0.72c0.08,0,0.16,0,0.24,0c-0.08-1.04-0.16-2.08-0.24-3.12c-0.16,0-0.32,0-0.48,0
			c-0.094-0.775-0.218-0.701-0.48-1.2c-0.4,0-0.8,0-1.2,0c-0.08,0.16-0.16,0.32-0.24,0.48c-0.4,0-0.8,0-1.2,0c0,0.08,0,0.16,0,0.24
			c-0.48,0-0.96,0-1.44,0c0,0.08,0,0.16,0,0.24c-0.16,0-0.32,0-0.48,0c0,0.08,0,0.16,0,0.24c-0.843,0.222-0.718-0.38-0.96-0.48
			c-0.24,0-0.48,0-0.72,0c0-0.24,0-0.48,0-0.72c0.72-0.08,1.44-0.16,2.16-0.24c0.08-0.16,0.16-0.32,0.24-0.48c0.4,0,0.8,0,1.2,0
			c0-0.16,0-0.32,0-0.48c0.64-0.08,1.28-0.16,1.92-0.24c0-0.16,0-0.32,0-0.48c0.4-0.08,0.8-0.16,1.2-0.24c0-0.16,0-0.32,0-0.48
			c0.16,0,0.32,0,0.48,0c0.183-0.653,0.057-0.546,0.72-0.72c0-0.32,0-0.64,0-0.96c0.16,0,0.32,0,0.48,0c0-0.72,0-1.44,0-2.16
			c-0.16,0-0.32,0-0.48,0c0-0.32,0-0.64,0-0.96c-0.4-0.08-0.8-0.16-1.2-0.24c0-0.16,0-0.32,0-0.48c-0.4,0-0.8,0-1.2,0
			c0-0.16,0-0.32,0-0.48c-0.88,0-1.76,0-2.64,0c0,0.16,0,0.32,0,0.48c-0.32,0-0.64,0-0.96,0c0,0.16,0,0.32,0,0.48
			c-0.48,0-0.96,0-1.44,0c0-0.16,0-0.32,0-0.48c-0.24,0-0.48,0-0.72,0c0-0.24,0-0.48,0-0.72c-0.16,0-0.32,0-0.48,0
			c0.022-1.009,0.043-1.713-0.48-2.16c-0.7-0.712-1.555-0.324-2.64-0.24c0,0.16,0,0.32,0,0.48c-1.146,0.122-0.848,0.285-1.2,1.2
			c-0.08,0-0.16,0-0.24,0c0,0.32,0,0.64,0,0.96c0.014,0.063,0.325,0.073,0.24,0.48c-0.08,0-0.16,0-0.24,0c0,0.16,0,0.32,0,0.48
			c-0.4,0-0.8,0-1.2,0c0-0.16,0-0.32,0-0.48c-1.467-0.022-4.146-0.357-5.04,0.48c-1.249,0.024-0.937,0.086-1.68,0.48
			c0,0.48,0,0.96,0,1.44c1.36,0,2.72,0,4.08,0c0,0.08,0,0.16,0,0.24c0.24,0,0.48,0,0.72,0c0,0.08,0,0.16,0,0.24
			c0.88,0.08,1.76,0.16,2.64,0.24c0,0.16,0,0.32,0,0.48c0.4,0.08,0.8,0.16,1.2,0.24c-0.144,0.479,0.033,0.207-0.24,0.48
			c-0.438,0.39-1.592,0.23-2.4,0.24c-0.4,0-0.8,0-1.2,0c0,0.08,0,0.16,0,0.24c-0.88-0.08-1.76-0.16-2.64-0.24c0,0.16,0,0.32,0,0.48
			c-0.16,0-0.32,0-0.48,0c0,0.16,0,0.32,0,0.48c-0.16,0-0.32,0-0.48,0c-0.063,1.414-0.189,2.367,0.96,2.64c0,0.48,0,0.96,0,1.44
			c-0.16,0.08-0.32,0.16-0.48,0.24c0,0.4,0,0.8,0,1.2c-0.16,0.08-0.32,0.16-0.48,0.24c0,0.32,0,0.64,0,0.96c-0.08,0-0.16,0-0.24,0
			c-0.411,1.34,0.179,2.978,0.24,4.08c0.16,0,0.32,0,0.48,0c0,0.16,0,0.32,0,0.48c2.295,0.065,5.041,0.25,7.68,0.24
			c-0.029,0.63-0.095,0.815-0.24,1.2c-1.04,0-2.08,0-3.12,0c-0.08-0.159-0.16-0.319-0.24-0.479c-0.48,0-0.96,0-1.44,0
			c0-0.08,0-0.16,0-0.24c-1.203-0.058-1.89-0.292-2.16,0.72c-0.16,0-0.32,0-0.48,0c-0.09,0.745-0.793,1.61-0.48,2.4
			c0.16,0.08,0.32,0.16,0.48,0.24c0,0.16,0,0.319,0,0.479c0.16,0,0.32,0,0.48,0c0,0.4,0,0.8,0,1.2c-0.16,0-0.32,0-0.48,0
			c0,0.64,0,1.28,0,1.92c-0.16,0-0.32,0-0.48,0c0,0.8,0,1.6,0,2.401c0.16,0.08,0.32,0.16,0.48,0.238c0,0.16,0,0.32,0,0.48
			c0.16,0,0.32,0,0.48,0c0.08,0.16,0.16,0.32,0.24,0.48c0.72,0,1.44,0,2.16,0c1.615,0.002,3.27,0.137,4.56,0.24
			c0.08,0.4,0.16,0.799,0.24,1.199c0.16,0,0.32,0,0.48,0c0,0.4,0,0.801,0,1.201c-0.16,0-0.32,0-0.48,0c0,0.559,0,1.119,0,1.68
			c-0.08,0-0.16,0-0.24,0c0.08,0.879,0.16,1.76,0.24,2.641c0.16,0,0.32,0,0.48,0c0,0.238,0,0.479,0,0.719
			c0.449,0.211,0.7,0.311,0.96,0.721c0.24,0,0.48,0,0.72,0c0-0.16,0-0.32,0-0.48c0.48-0.08,0.96-0.16,1.44-0.24
			c0-0.16,0-0.32,0-0.48c0.16,0,0.32,0,0.48,0c0.178-1.842,0.254-4.281,0.24-6.479c0.653-0.008,1.95-0.271,2.16-0.24
			c0,0.08,0,0.16,0,0.24c0.4,0,0.8,0,1.2,0c0-0.08,0-0.16,0-0.24c0.8-0.16,1.6-0.32,2.4-0.48c0-0.16,0-0.32,0-0.48
			c0.16,0,0.32,0,0.48,0c0-0.16,0-0.32,0-0.48c0.653-0.182,0.546-0.057,0.72-0.719c0.16,0,0.32,0,0.48,0
			c0.224-0.835,0.625-0.897,0.72-1.92c0.16,0,0.32,0,0.48,0c0-0.56,0-1.12,0-1.68c-0.8-0.08-1.6-0.16-2.4-0.24
			C133.696,23.913,133.696,23.993,133.696,24.073z M126.975,4.873c0.16,0,0.32,0,0.48,0c0-0.16,0-0.32,0-0.48
			c1.284-0.129,2.322-0.242,3.6,0c0,0.24,0,0.48,0,0.72c-0.16,0-0.32,0-0.48,0c0,0.16,0,0.32,0,0.48c-0.88,0-1.76,0-2.64,0
			c-0.061,0.013-0.079,0.309-0.48,0.24c0-0.08,0-0.16,0-0.24c-0.16,0-0.32,0-0.48,0C126.975,5.353,126.975,5.114,126.975,4.873z
			 M127.216,14.233c0.028-0.63,0.095-0.815,0.24-1.2c1.742-0.005,1.605,0.151,2.64,0.72c-0.127,1.009-0.34,0.78-0.72,1.44
			c-0.72-0.08-1.44-0.16-2.16-0.24c-0.08-0.24-0.16-0.48-0.24-0.72C127.055,14.233,127.135,14.233,127.216,14.233z M118.095,9.433
			c0.96,0,1.92,0,2.88,0c0,0.16,0,0.32,0,0.48c0.48,0.08,0.96,0.16,1.44,0.24c0,0.16,0,0.32,0,0.48c-1.33,0.134-2.512,0.251-3.84,0
			c0-0.16,0-0.32,0-0.48c-0.16,0-0.32,0-0.48,0C118.095,9.913,118.095,9.673,118.095,9.433z M122.415,14.953c0,0.08,0,0.16,0,0.24
			c-0.179-0.082-0.56-0.459-0.96-0.24c0,0.08,0,0.16,0,0.24c-1.034,0.011-2.19,0.019-2.88-0.24c0-0.64,0-1.28,0-1.92
			c1.28,0.08,2.56,0.16,3.84,0.24c0,0.16,0,0.32,0,0.48c0.24,0,0.48,0,0.72,0c0,0.24,0,0.48,0,0.72
			C122.895,14.633,122.656,14.793,122.415,14.953z M123.135,25.274c0,0.159,0,0.319,0,0.479c-0.72,0-1.44,0-2.16,0
			c0-0.08,0-0.16,0-0.24c-0.371-0.205-0.58-0.203-1.2-0.239c-0.22-0.834-0.635-1.117-0.72-2.16c1.36,0.08,2.72,0.16,4.08,0.24
			c0,0.159,0,0.319,0,0.479c0.16,0,0.32,0,0.48,0c0.145,0.479-0.033,0.207,0.24,0.48C123.767,25.125,123.854,25.087,123.135,25.274z
			"/>
		<path fill-rule="evenodd" clip-rule="evenodd" fill="#231815" d="M97.455,4.873c0.08,0.16,0.16,0.32,0.24,0.48
			c1.919,0,3.84,0,5.76,0c0-0.08,0-0.16,0-0.24c0.16,0,0.32,0,0.48,0c0-0.08,0-0.16,0-0.24c0.16,0,0.32,0,0.48,0
			c0.08-0.16,0.16-0.32,0.24-0.48c0.88,0,1.76,0,2.64,0c0-0.08,0-0.16,0-0.24c0.24,0,0.48,0,0.72,0
			c0.027-0.014,0.262-0.365,0.48-0.48c0.03-1.113,0.103-2.139-0.48-2.64c-0.814-0.818-5.223-0.518-6.96-0.48c0-0.16,0-0.32,0-0.48
			c-1.972-0.026-2.651-0.58-4.32-0.72c-0.367,1.997-0.097,3.783,0.24,5.52C97.135,4.873,97.296,4.873,97.455,4.873z"/>
		<path fill-rule="evenodd" clip-rule="evenodd" fill="#231815" d="M241.695,7.273c0.548,0.499,2.614,0.269,3.601,0.24
			c0,0.16,0,0.32,0,0.48c0.652,0.183,0.546,0.057,0.72,0.72c0.56,0,1.12,0,1.68,0c0.08-0.16,0.16-0.32,0.24-0.48
			c0.32-0.08,0.64-0.16,0.96-0.24c0-0.16,0-0.32,0-0.48c1.04-0.08,2.08-0.16,3.12-0.24c0-0.16,0-0.32,0-0.48
			c0.923-0.118,0.668-0.295,1.44-0.48c0-0.24,0-0.48,0-0.72c0.159,0,0.319,0,0.479,0c-0.084-1.454-0.402-0.849-0.96-1.68
			c-1.578,0.026-1.924,0.451-3.36,0.48c0.07-1.734,0.194-3.034-1.199-3.36c0-0.08,0-0.16,0-0.24c-0.48,0-0.96,0-1.44,0
			c0,0.16,0,0.32,0,0.48c-1.414,0.032-1.341,0.471-2.16,0.96c-0.08,0.88-0.16,1.76-0.24,2.64c-0.239,0-0.479,0-0.72,0
			c0-0.16,0-0.32,0-0.48c-0.56,0-1.12,0-1.68,0c0,0.16,0,0.32,0,0.48c-0.4,0.08-0.8,0.16-1.2,0.24
			c-0.145,0.479,0.033,0.207-0.24,0.48C240.719,6.719,240.785,7.065,241.695,7.273z"/>
		<path fill-rule="evenodd" clip-rule="evenodd" fill="#231815" d="M279.135,6.793c0.08-0.16,0.16-0.32,0.24-0.48
			c0.16,0,0.319,0,0.479,0c0,0.4,0,0.8,0,1.2c-0.88,0-1.76,0-2.64,0c0.063,0.809,0.191,1.335,0.72,1.68c0,0.24,0,0.48,0,0.72
			c-0.16,0.08-0.32,0.16-0.479,0.24c0,0.16,0,0.32,0,0.48c-0.08,0-0.16,0-0.24,0c-0.328,0.424-0.391,0.475-0.48,1.2
			c-0.16,0-0.319,0-0.479,0c0.08,0.16,0.16,0.32,0.24,0.48c0.479,0,0.96,0,1.439,0c0-0.16,0-0.32,0-0.48c0.24,0,0.48,0,0.72,0
			c0-0.16,0-0.32,0-0.48c0.641-0.08,1.28-0.16,1.92-0.24c0,0.08,0,0.16,0,0.24c0.469,0.303,0.449,0.375,1.2,0.48
			c0,0.16,0,0.32,0,0.48c0.875-0.086,1.023-0.188,1.2-0.96c0.16,0,0.32,0,0.48,0c0-0.4,0-0.8,0-1.2
			c-0.582-0.147-0.528-0.253-0.96-0.48c0-0.4,0-0.8,0-1.2c0.159-0.08,0.319-0.16,0.479-0.24c0-0.64,0-1.28,0-1.92
			c0.4-0.08,0.8-0.16,1.2-0.24c0.114-0.594,0.233-0.879,0.24-1.68c-0.938-0.125-1.629-0.546-2.641-0.72
			c0.052-1.167,0.261-1.661-0.72-1.92c0-0.16,0-0.32,0-0.48c-0.4,0-0.8,0-1.2,0c0-0.16,0-0.32,0-0.48c-0.8,0-1.6,0-2.399,0
			c-0.08,0.16-0.16,0.32-0.24,0.48c-0.16,0-0.32,0-0.48,0c0,0.4,0,0.8,0,1.2c0.16,0,0.32,0,0.48,0c0,0.16,0,0.32,0,0.48
			c1.249,0.177,0.68,0.567,1.92,0.72c0,0.24,0,0.48,0,0.72c-1.2,0-2.4,0-3.6,0c0,0.16,0,0.32,0,0.48c-0.16,0-0.32,0-0.48,0
			c-0.165,0.967-0.098,0.878,0,1.92C275.723,6.823,278.35,7.124,279.135,6.793z"/>
		<path fill-rule="evenodd" clip-rule="evenodd" fill="#231815" d="M258.496,25.753c0-0.16,0-0.32,0-0.479
			c-0.867-0.081-2.229-0.578-3.36-0.24c0,0.08,0,0.16,0,0.24c-0.32,0-0.64,0-0.96,0c0,0.08,0,0.159,0,0.239c-0.16,0-0.32,0-0.48,0
			c0,0.08,0,0.16,0,0.24c-0.479,0-0.96,0-1.439,0c0,0.08,0,0.16,0,0.24c-1.04,0-2.08,0-3.12,0c0-0.08,0-0.16,0-0.24
			c-0.88,0-1.76,0-2.64,0c0-0.08,0-0.16,0-0.24c-0.16,0-0.32,0-0.48,0c0-0.08,0-0.159,0-0.239c-0.88-0.08-1.76-0.16-2.64-0.24
			c0-0.16,0-0.32,0-0.48c-0.4,0-0.801,0-1.2,0c-0.184-0.652-0.057-0.546-0.72-0.72c-0.08-0.4-0.16-0.8-0.24-1.2
			c-0.08,0-0.16,0-0.24,0c0.08-0.399,0.16-0.8,0.24-1.2c0.24-0.079,0.479-0.159,0.72-0.239c0-0.16,0-0.32,0-0.48
			c0.24,0,0.48,0,0.72,0c0-0.16,0-0.32,0-0.479c0.24-0.08,0.48-0.16,0.721-0.24c0-0.32,0-0.64,0-0.96
			c-0.855,0.007-1.625-0.038-2.16-0.24c0.08-0.4,0.16-0.8,0.24-1.2c0.72,0,1.439,0,2.159,0c0-0.08,0-0.16,0-0.24
			c0.534-0.222,0.925-0.224,1.681-0.24c0.16,0.8,0.319,1.6,0.479,2.399c0.88-0.08,1.761-0.159,2.641-0.239c0-0.16,0-0.32,0-0.48
			c0.239,0,0.479,0,0.72,0c0-0.24,0-0.48,0-0.72c0.16,0,0.32,0,0.479,0c0-1.04,0-2.08,0-3.12c-1.68,0-3.359,0-5.04,0
			c0,0.08,0,0.16,0,0.24c-0.399,0-0.8,0-1.199,0c0,0.16,0,0.32,0,0.48c-0.641,0-1.28,0-1.92,0c-0.145-0.479,0.033-0.207-0.24-0.48
			c0-0.24,0-0.48,0-0.72c0.08,0,0.16,0,0.24,0c0-0.08,0-0.16,0-0.24c0.319,0,0.64,0,0.96,0c0.08-0.16,0.159-0.32,0.239-0.48
			c1.76,0,3.521,0,5.28,0c0-0.08,0-0.16,0-0.24c0.16,0,0.32,0,0.48,0c0-0.08,0-0.16,0-0.24c0.64-0.08,1.279-0.16,1.92-0.24
			c0-0.16,0-0.32,0-0.48c0.319,0,0.64,0,0.96,0c0.08-0.4,0.16-0.8,0.24-1.2c0.159,0,0.319,0,0.479,0c0-0.16,0-0.32,0-0.48
			c-1.12,0-2.24,0-3.36,0c-0.08,0.16-0.159,0.32-0.239,0.48c-0.96,0-1.921,0-2.88,0c0,0.08,0,0.16,0,0.24
			c-0.4,0.08-0.801,0.16-1.2,0.24c0-0.08,0-0.16,0-0.24c-0.24,0-0.48,0-0.721,0c0-0.08,0-0.16,0-0.24c-0.56,0-1.12,0-1.68,0
			c0-0.08,0-0.16,0-0.24c-0.16,0-0.32,0-0.479,0c0-0.08,0-0.16,0-0.24c-0.24-0.08-0.48-0.16-0.721-0.24c0-0.16,0-0.32,0-0.48
			c-0.16,0-0.319,0-0.479,0c-0.127-1.009-0.34-0.78-0.72-1.44c-1.164-0.002-2.271,0.087-3.12,0.24c0,0.56,0,1.12,0,1.68
			c-0.698,0.172-1.306,0.799-1.92,0.24c-0.974,0.01-2.004,0-2.641-0.24c0.125-1.155,0.604-1.596,0.72-2.64c0.16,0,0.32,0,0.48,0
			c0-0.16,0-0.32,0-0.48c0.48-0.08,0.96-0.16,1.44-0.24c0-0.16,0-0.32,0-0.48c0.159,0,0.319,0,0.479,0
			c0.184-0.653,0.057-0.546,0.72-0.72c0.08-0.48,0.16-0.96,0.24-1.44c-0.685-0.259-1.85-0.261-2.88-0.24
			c0.01-1.99-0.315-1.961-0.96-3.12c-0.64,0-1.28,0-1.92,0c0,0.16,0,0.32,0,0.48c-0.4,0.08-0.8,0.16-1.2,0.24
			c-0.141,0.742-0.254,1.602-0.24,2.64c-0.08,0-0.16,0-0.239,0c0,0.08,0,0.16,0,0.24c-0.721,0-1.44,0-2.16,0c0-0.16,0-0.32,0-0.48
			c-0.48,0-0.96,0-1.44,0c-0.08-0.16-0.16-0.32-0.24-0.48c-0.479,0-0.96,0-1.439,0c0,0.16,0,0.32,0,0.48c-0.16,0-0.32,0-0.48,0
			c-0.269,0.966-0.722,0.955-0.72,2.4c0.551,0.074,0.611,0.043,0.96,0.24c0,0.08,0,0.16,0,0.24c0.64,0,1.28,0,1.92,0
			c0,0.08,0,0.16,0,0.24c1.12,0,2.24,0,3.36,0c0,0.08,0,0.16,0,0.24c0.369,0.205,0.58,0.209,1.2,0.24
			c0.08,0.88,0.159,1.76,0.239,2.64c-1.355,0.239-3.031-0.025-4.56,0.24c0,0.16,0,0.32,0,0.48c-0.16,0-0.32,0-0.48,0
			c0,0.4,0,0.8,0,1.2c0.16,0,0.32,0,0.48,0c0,0.16,0,0.32,0,0.48c1.12,0.08,2.24,0.16,3.36,0.24c0,0.08,0,0.16,0,0.24
			c0.159,0,0.319,0,0.479,0c0,0.08,0,0.16,0,0.24c1.12,0,2.24,0,3.36,0c0,0.08,0,0.16,0,0.24c0.239,0,0.479,0,0.72,0
			c0,0.08,0,0.16,0,0.24c0.96,0,1.92,0,2.88,0c0,0,0.016,0.163,0.48,0.24c0,0.24,0,0.48,0,0.72c-0.776,0.113-1.547,0.928-2.641,0.48
			c-0.08-0.16-0.16-0.32-0.239-0.48c-0.32,0-0.641,0-0.961,0c0-0.08,0-0.16,0-0.24c-1.199,0-2.399,0-3.6,0
			c-0.08,0.24-0.16,0.48-0.24,0.72c-0.239,0.08-0.479,0.16-0.72,0.24c-0.618,1.503-0.431,3.038-0.24,4.8c0.96,0,1.92,0,2.88,0
			c0-0.16,0-0.32,0-0.479c0.4-0.08,0.801-0.16,1.2-0.24c0.184-0.653,0.058-0.547,0.72-0.72c0.18-0.678,0.43-0.689,0.721-1.2
			c1.12,0.08,2.24,0.16,3.359,0.24c0.08,0.24,0.16,0.48,0.24,0.72c-0.479,0-0.96,0-1.439,0c0-0.08,0-0.16,0-0.24
			c-0.647-0.254-1.21-0.236-1.681,0.24c-0.16,0.08-0.319,0.16-0.479,0.24c0,0.239,0,0.479,0,0.72c-0.16,0-0.32,0-0.48,0
			c0,0.24,0,0.479,0,0.72c0.16,0,0.32,0,0.48,0c0,0.16,0,0.32,0,0.48c0.8,0.08,1.6,0.16,2.399,0.239c0,0.16,0,0.32,0,0.48
			c0.24,0,0.48,0,0.721,0c0,0.32,0,0.64,0,0.96c-0.494,0.282-0.923,0.701-1.2,1.2c-1.92-0.08-3.841-0.16-5.76-0.24
			c0-0.16,0-0.32,0-0.479c-0.4,0-0.801,0-1.2,0c0-0.16,0-0.32,0-0.48c-0.48,0-0.96,0-1.44,0c0-0.08,0-0.16,0-0.24
			c-0.8,0.08-1.6,0.16-2.399,0.24c0,0.16,0,0.32,0,0.48c-0.653,0.183-0.547,0.057-0.721,0.72c-0.159,0-0.319,0-0.479,0
			c0,0.72,0,1.439,0,2.16c0.653,0.183,0.546,0.057,0.72,0.72c1.832,0.088,4.068,0.243,6.24,0.24c0.64,0,1.28,0,1.92,0
			c0-0.08,0-0.16,0-0.24c0.56,0,1.12,0,1.68,0c0-0.16,0-0.32,0-0.48c0.88-0.08,1.761-0.159,2.641-0.239
			c0.08,0.479,0.159,0.96,0.239,1.44c0.08,0,0.16,0,0.24,0c0.041,0.301-0.354,0.402-0.24,0.959c0.012,0.055,0.32,0.082,0.24,0.48
			c-0.08,0-0.16,0-0.24,0c0,0.32,0,0.641,0,0.961c-0.08,0-0.159,0-0.239,0c0,1.359,0,2.719,0,4.08
			c-0.017,0.07-0.318,0.068-0.24,0.479c0.08,0,0.16,0,0.24,0c0,0.16,0,0.32,0,0.48c0.771-0.199,0.826-0.467,1.92-0.48
			c0-0.16,0-0.318,0-0.479c0.399-0.08,0.8-0.16,1.2-0.24c0-0.16,0-0.32,0-0.48c0.159,0,0.319,0,0.479,0
			c0.24-2.16,0.48-4.32,0.72-6.48c1.261,0.146,1.367,0.656,2.641,0.72c0,0.16,0,0.32,0,0.48c0.64,0.08,1.279,0.16,1.92,0.238
			c0.08,0.16,0.16,0.32,0.24,0.48c0.319,0,0.64,0,0.96,0c0.079,0.16,0.159,0.32,0.239,0.48c0.8,0.08,1.601,0.16,2.4,0.24
			c0.08,0.16,0.16,0.32,0.24,0.48c0.399,0,0.8,0,1.199,0c0,0.08,0,0.16,0,0.24c0.561,0,1.12,0,1.681,0
			c0.08,0.158,0.16,0.318,0.24,0.479c0.96,0,1.92,0,2.88,0c0.08-0.16,0.16-0.32,0.239-0.479c0.48-0.08,0.96-0.16,1.44-0.24
			c0-0.16,0-0.32,0-0.48c1.009-0.127,0.78-0.34,1.44-0.721c0-0.24,0-0.48,0-0.719c0.159,0,0.319,0,0.479,0c0-0.32,0-0.641,0-0.96
			c0.08,0,0.16,0,0.24,0c-0.08-0.48-0.16-0.96-0.24-1.44C258.815,25.753,258.655,25.753,258.496,25.753z"/>
		<path fill-rule="evenodd" clip-rule="evenodd" fill="#231815" d="M264.496,10.633c0,0.08,0,0.16,0,0.24c0.079,0,0.159,0,0.239,0
			c0.005,1.347,0.284,1.411,0.721,2.16c0.755-0.2,0.869-0.552,1.68-0.72c0-0.16,0-0.32,0-0.48c0.4-0.08,0.8-0.16,1.2-0.24
			c0-0.08,0-0.16,0-0.24c1.142-0.378,2.423,0.829,3.359,0c1.249-0.024,0.938-0.085,1.681-0.48c0-0.32,0-0.64,0-0.96
			c-0.16,0-0.32,0-0.48,0c-0.08-0.16-0.16-0.32-0.24-0.48c-0.523-0.242-1.946-0.193-2.159,0c-1.089,0.017-2.167,0.116-2.641-0.48
			c-0.08-0.24-0.16-0.48-0.24-0.72c-0.079,0-0.159,0-0.239,0c0.813-0.725,2.718,0.245,3.84-0.24c0.08-0.16,0.16-0.32,0.24-0.48
			c0.239,0,0.479,0,0.72,0c0-0.08,0-0.16,0-0.24c0.08,0,0.16,0,0.24,0c-0.002-0.741-0.071-1.232-0.24-1.68c-1.6,0-3.2,0-4.8,0
			c-0.184-0.653-0.058-0.546-0.721-0.72c0-0.32,0-0.64,0-0.96c0.45-0.078,1.032-0.495,1.681-0.24c0.08,0.16,0.16,0.32,0.239,0.48
			c1.36,0,2.721,0,4.08,0c0.08-0.16,0.16-0.32,0.24-0.48c0.16,0,0.32,0,0.48,0c-0.002-0.741-0.071-1.231-0.24-1.68
			c-0.48-0.16-0.96-0.32-1.44-0.48c0-0.08,0-0.16,0-0.24c-0.88,0-1.76,0-2.64,0c-0.08,0.16-0.16,0.32-0.24,0.48
			c-1.359,0.08-2.72,0.16-4.08,0.24c0,0.16,0,0.32,0,0.48c-0.16,0-0.319,0-0.479,0c0,0.88,0,1.76,0,2.64c0.16,0,0.319,0,0.479,0
			C264.713,6.915,264.899,9.931,264.496,10.633z"/>
		<path fill-rule="evenodd" clip-rule="evenodd" fill="#231815" d="M341.536,7.993c0-0.16,0-0.32,0-0.48c-0.16,0-0.32,0-0.48,0
			c-0.08-0.24-0.16-0.48-0.24-0.72c-1.6,0.08-3.2,0.16-4.8,0.24c0,0.08,0,0.16,0,0.24c-0.4,0-0.8,0-1.2,0c0-0.08,0-0.16,0-0.24
			c-1.479-0.411-3.717,0.153-5.04-0.24c-0.479,0-0.96,0-1.439,0c0-0.08,0-0.16,0-0.24c-0.16,0-0.32,0-0.48,0c0-0.08,0-0.16,0-0.24
			c-0.399,0-0.8,0-1.2,0c-0.08-0.16-0.159-0.32-0.239-0.48c-0.641-0.08-1.28-0.16-1.92-0.24c-0.08-0.16-0.16-0.32-0.24-0.48
			c-0.72-0.08-1.44-0.16-2.16-0.24c0-0.16,0-0.32,0-0.48c-0.479-0.145-0.207,0.033-0.48-0.24c-0.478-0.444,0.024-0.247-0.239-0.72
			c-0.16-0.08-0.32-0.16-0.48-0.24c0-0.4,0-0.8,0-1.2c-0.24-0.08-0.479-0.16-0.72-0.24c0-0.16,0-0.32,0-0.48
			c-1.249,0.024-0.937,0.086-1.68,0.48c-0.08,0.88-0.16,1.76-0.24,2.64c-1.196,0.166-1.594,0.707-3.12,0.72c0,0.16,0,0.32,0,0.48
			c-1.04,0.08-2.08,0.16-3.12,0.24c0,0.16,0,0.32,0,0.48c-1.711-0.071-2.45-0.721-4.32-0.72c0-0.16,0-0.32,0-0.48
			c-0.399,0-0.8,0-1.199,0c0-0.08,0-0.16,0-0.24c-1.04,0.08-2.08,0.16-3.12,0.24c-0.08,0.48-0.16,0.96-0.24,1.44
			c-0.16,0.08-0.32,0.16-0.48,0.24c0,0.48,0,0.96,0,1.44c0.16,0,0.32,0,0.48,0c0.016,0.53-0.043,0.956,0.24,1.2
			c0.16,0,0.319,0,0.479,0c0,0.08,0,0.16,0,0.24c0.24,0.08,0.48,0.16,0.72,0.24c1.026,0.947,3.721,0.148,5.04,0
			c0-0.16,0-0.32,0-0.48c0.4-0.08,0.801-0.16,1.2-0.24c0-0.16,0-0.32,0-0.48c1.067-0.075,0.964-0.369,1.92-0.48
			c0.614,0.698,1.615,0.632,1.92,1.68c0.16,0,0.32,0,0.48,0c-0.496,0.449-1.558,0.106-2.4,0.24c-0.794,0.127-1.967,0.27-3.12,0.24
			c-0.079,1.12-0.159,2.24-0.239,3.36c-0.08,0-0.16,0-0.24,0c0,0.16,0,0.32,0,0.48c-0.08,0-0.16,0-0.24,0
			c-0.419,1.212,0.607,3.604,0.72,4.8c0.16,0,0.32,0,0.48,0c0.08,0.32,0.16,0.64,0.24,0.96c0.96,0.08,1.92,0.16,2.88,0.24
			c0,0.08,0,0.159,0,0.239c1.244,0.36,3.578-0.067,4.8,0.24c0.563,0.142,0.649-0.277,0.96-0.24c0,0.08,0,0.16,0,0.24c2,0,4,0,6,0
			c0.08-0.16,0.16-0.32,0.24-0.479c0.399,0,0.8,0,1.2,0c0-0.08,0-0.16,0-0.24c0.56,0,1.12,0,1.68,0c0.08-0.16,0.16-0.32,0.24-0.48
			c0.239,0,0.479,0,0.72,0c0-0.08,0-0.159,0-0.239c0.16,0,0.32,0,0.48,0c0-0.08,0-0.16,0-0.24c0.239-0.08,0.479-0.16,0.72-0.24
			c0.108-0.737,0.159-0.751,0.479-1.2c0.08,0,0.16,0,0.24,0c0-0.24,0-0.48,0-0.72c0.08,0,0.16,0,0.24,0
			c0.22-0.358,0.209-0.588,0.24-1.2c0.159,0,0.319,0,0.479,0c0.08-1.12,0.16-2.24,0.24-3.36c-0.115-0.42-0.387-1.407-0.48-1.92
			c0.367-0.141,0.391-0.192,0.96-0.24c0,0.16,0,0.32,0,0.48c0.542,0.077,0.625,0.025,0.96,0.24c0,0.08,0,0.16,0,0.24
			c0.16,0,0.32,0,0.48,0c0,0.08,0,0.16,0,0.24c0.4,0,0.8,0,1.2,0c0,0.16,0,0.32,0,0.48c1.04,0.08,2.08,0.16,3.12,0.24
			c0-0.08,0-0.16,0-0.24c0.08,0,0.159,0,0.239,0c0.4,0,0.801,0,1.2,0c0.08-0.16,0.16-0.32,0.24-0.48c0.16,0,0.32,0,0.479,0
			c0-0.08,0-0.16,0-0.24c0.359-0.28,0.424-0.336,0.961-0.48c0-0.24,0-0.48,0-0.72c0.159,0,0.319,0,0.479,0c0-0.64,0-1.28,0-1.92
			C341.855,7.993,341.695,7.993,341.536,7.993z M312.735,12.553c1.84,0,3.681,0,5.521,0c0,0.4,0,0.8,0,1.2c-1.52,0-3.04,0-4.561,0
			c0-0.16,0-0.32,0-0.48c-0.319,0-0.64,0-0.96,0C312.735,13.033,312.735,12.793,312.735,12.553z M318.975,17.594
			c-2.138,0.388-4.158,0.013-6.479,0c0.093-0.775,0.217-0.702,0.479-1.2c1.76,0,3.521,0,5.28,0c0,0.16,0,0.32,0,0.48
			c0.24,0,0.479,0,0.72,0C318.975,17.114,318.975,17.353,318.975,17.594z M320.895,7.993c-1.29,0.236-1.959,0.045-3.359,0
			c0-0.16,0-0.32,0-0.48c-0.24,0-0.48,0-0.721,0c0-0.08,0-0.16,0-0.24c0.422-0.191,2.314-1.164,2.88-0.96c0,0.08,0,0.16,0,0.24
			c0.379,0.201,0.579,0.189,1.2,0.24C320.895,7.193,320.895,7.594,320.895,7.993z M324.015,9.193c0.653-0.166,0.543-0.325,1.2-0.48
			c0-0.16,0-0.32,0-0.48c0.55,0.066,0.617,0.04,0.96,0.24c0,0.08,0,0.16,0,0.24c0.32,0,0.64,0,0.96,0c0.08,0.16,0.16,0.32,0.24,0.48
			c0.319,0,0.64,0,0.96,0c0,0.08,0,0.16,0,0.24c0.479,0.145,0.206-0.033,0.479,0.24c-0.311,0.198-0.285,0.165-0.479,0.48
			c-1.44,0-2.88,0-4.32,0C324.015,9.833,324.015,9.513,324.015,9.193z M328.575,16.393c0,0.16,0,0.32,0,0.48
			c-0.479,0.08-0.96,0.16-1.439,0.24c0,0.16,0,0.32,0,0.48c-0.4,0-0.8,0-1.2,0c0,0.08,0,0.16,0,0.24c-1.04-0.08-2.08-0.16-3.12-0.24
			c0-0.24,0-0.48,0-0.72c0.16,0,0.32,0,0.48,0c0-0.16,0-0.32,0-0.48c2.095-0.031,4.01-0.378,5.52-0.96
			c0.141,0.366,0.192,0.391,0.24,0.96C328.895,16.393,328.735,16.393,328.575,16.393z M329.055,13.273
			c-0.633,0.019-2.071,0.178-2.4,0.48c-1.262,0.037-3.318,0.286-3.84-0.48c-0.08,0-0.16,0-0.24,0c0.08-0.24,0.16-0.48,0.24-0.72
			c1.68-0.08,3.36-0.16,5.04-0.24c0-0.16,0-0.32,0-0.48c0.4,0,0.8,0,1.2,0c0,0.16,0,0.32,0,0.48c0.08,0,0.16,0,0.24,0
			C329.3,12.457,329.084,12.759,329.055,13.273z"/>
		<path fill-rule="evenodd" clip-rule="evenodd" fill="#231815" d="M285.855,4.153c0.4,0,0.8,0,1.2,0c0,0.08,0,0.16,0,0.24
			c2.323-0.018,5.643-0.329,7.2,0.48c0,0.08,0,0.16,0,0.24c-0.16,0-0.32,0-0.48,0c0,0.16,0,0.32,0,0.48
			c-0.96,0.08-1.92,0.16-2.88,0.24c0,0-0.197-0.352-0.72-0.24c0,0.08,0,0.16,0,0.24c-0.88-0.08-1.76-0.16-2.64-0.24
			c0,0.08,0,0.16,0,0.24c-0.24,0-0.48,0-0.721,0c-0.045,0.62-0.031,0.827-0.24,1.2c-0.079,0-0.159,0-0.239,0c0,0.4,0,0.8,0,1.2
			c1.985,0.033,5.89,0.485,6.72-0.72c0.16,0,0.32,0,0.48,0c-0.238,0.522-0.418,0.678-0.48,1.44c-0.24,0-0.48,0-0.72,0
			c0,0.16,0,0.32,0,0.48c-1.04,0-2.08,0-3.12,0c-0.08,0.16-0.16,0.32-0.24,0.48c-0.88,0-1.76,0-2.64,0
			c0.08,0.757,0.072,0.601,0.479,0.96c0,0.08,0,0.16,0,0.24c0.951,0.659,2.796-0.143,4.08,0.24c0,0.08,0,0.16,0,0.24
			c0.4,0,0.8,0,1.2,0c0,0.08,0,0.16,0,0.24c0.479-0.08,0.96-0.16,1.44-0.24c0-0.08,0-0.16,0-0.24
			c1.311,0.009,1.929-0.413,2.159-1.44c0.16,0,0.32,0,0.48,0c0.076-0.545,0.032-0.619,0.24-0.96c0.08,0,0.159,0,0.239,0
			c0-0.24,0-0.48,0-0.72c0.08,0,0.16,0,0.24,0c0-0.24,0-0.48,0-0.72c0.16-0.08,0.32-0.16,0.48-0.24c0-0.48,0-0.96,0-1.44
			c0.08,0,0.16,0,0.239,0c0.308-1.053-0.097-2.624-0.239-3.36c-0.16,0-0.32,0-0.48,0c0-0.16,0-0.32,0-0.48
			c-1.207-0.216-1.461-0.055-2.64,0c-0.64,0-1.28,0-1.92,0c0,0.08,0,0.16,0,0.24c-1.2-0.08-2.4-0.16-3.601-0.24
			c0,0.16,0,0.32,0,0.48c-1.04,0-2.08,0-3.12,0c0,0.48,0,0.96,0,1.44c0.08,0,0.16,0,0.24,0
			C285.855,3.993,285.855,4.073,285.855,4.153z"/>
		<path fill-rule="evenodd" clip-rule="evenodd" fill="#231815" d="M174.735,12.553c0-1.949,0.423-7.484-0.479-8.4
			c-0.274-0.404-0.146-0.334-0.72-0.48c0-0.16,0-0.32,0-0.48c-1.121,0-2.24,0-3.36,0c0,0.16,0,0.32,0,0.48c-0.8,0-1.6,0-2.4,0
			c0-0.08,0-0.16,0-0.24c-0.16,0-0.32,0-0.48,0c0-0.08,0-0.16,0-0.24c-1.76,0-3.521,0-5.28,0c0-0.08,0-0.16,0-0.24
			c-2.8,0-5.6,0-8.4,0c0-0.08,0-0.16,0-0.24c-2.8,0.16-5.601,0.32-8.4,0.48c0-0.08,0-0.16,0-0.24c-0.56,0-1.12,0-1.68,0
			c-0.08-0.16-0.16-0.32-0.24-0.48c-0.32,0-0.64,0-0.96,0c0-0.08,0-0.16,0-0.24c-0.366-0.213-0.583-0.203-1.2-0.24
			c0,0.16,0,0.32,0,0.48c-0.16,0-0.32,0-0.48,0c0,0.16,0,0.32,0,0.48c-0.479,0.145-0.207-0.033-0.48,0.24c-0.08,0-0.16,0-0.24,0
			c0,0.24,0,0.48,0,0.72c-0.16,0.08-0.32,0.16-0.48,0.24c0.16,1.28,0.32,2.561,0.48,3.84c-0.08,0-0.16,0-0.24,0c0,0.4,0,0.8,0,1.2
			c-0.08,0-0.16,0-0.24,0c-0.168,0.605,0.09,1.556,0.24,1.92c0.08,0,0.16,0,0.24,0c0,1.12,0,2.24,0,3.36
			c0.08,5.04,0.16,10.081,0.24,15.12c0.16,0,0.32,0,0.48,0c0.026,1.627,0.436,1.334,0.72,2.4c0.48,0.08,0.96,0.16,1.44,0.24
			c0-0.08,0-0.16,0-0.24c0.64,0,1.28,0,1.92,0c0,0.08,0,0.16,0,0.24c0.48,0,0.96,0,1.44,0c0,0.08,0,0.158,0,0.238
			c0.32,0,0.64,0,0.96,0c0,0.08,0,0.16,0,0.24c1.52,0,3.04,0,4.56,0c0,0.08,0,0.16,0,0.24c0.24,0,0.48,0,0.72,0
			c0,0.08,0,0.16,0,0.24c0.48,0,0.96,0,1.44,0c0.4,0,0.8,0,1.2,0c0,0-0.005,0.316,0.48,0.24c0-0.08,0-0.16,0-0.24
			c0.56,0,1.12,0,1.68,0c2.399,0.08,4.8,0.16,7.2,0.24c0-0.08,0-0.16,0-0.24c0.4,0,0.8,0,1.2,0c0.08-0.16,0.16-0.32,0.24-0.48
			c0.72,0,1.44,0,2.16,0c0.08-0.16,0.16-0.32,0.24-0.479c1.44,0,2.88,0,4.319,0c0-0.08,0-0.16,0-0.24c0.24,0,0.48,0,0.721,0
			c0.08-0.4,0.16-0.801,0.24-1.201c0.16,0,0.319,0,0.479,0c0-0.479,0-0.959,0-1.439c0.16-0.08,0.319-0.16,0.479-0.24
			c0.08-1.039,0.16-2.08,0.24-3.12c0.16-0.08,0.32-0.16,0.48-0.24c0-1.12,0-2.24,0-3.36c-0.08,0-0.16,0-0.24,0
			c0-0.159,0-0.319,0-0.479c-0.08,0-0.16,0-0.24,0c0-1.04,0-2.08,0-3.12c0.16-0.08,0.32-0.16,0.48-0.24c0-1.04,0-2.08,0-3.12
			c-0.16-0.08-0.32-0.16-0.48-0.24C174.735,14.313,174.735,13.433,174.735,12.553z M158.895,5.594c0.781-0.1,2.808-1.005,4.08-0.48
			c0,0.08,0,0.16,0,0.24c0.373,0.207,0.581,0.197,1.2,0.24c-0.08,0.64-0.16,1.28-0.24,1.92c-0.16,0-0.32,0-0.48,0
			c0,0.16,0,0.32,0,0.48c-0.72,0.08-1.44,0.16-2.16,0.24c0-0.08,0-0.16,0-0.24c-0.4,0-0.8,0-1.2,0c0-0.16,0-0.32,0-0.48
			c-0.653-0.183-0.546-0.057-0.72-0.72c-0.16,0-0.32,0-0.48,0C158.895,6.393,158.895,5.993,158.895,5.594z M158.176,12.553
			c0,0.16,0,0.32,0,0.48c-0.891-0.153-2.444-0.332-2.88-0.96c-0.16,0-0.32,0-0.48,0c0-0.08,0-0.16,0-0.24c0.8,0,1.6,0,2.4,0
			c0,0.08,0,0.16,0,0.24C157.611,12.334,157.616,12.404,158.176,12.553z M144.495,6.313c0-0.08,0-0.16,0-0.24c0.24,0,0.48,0,0.72,0
			c0.08-0.16,0.16-0.32,0.24-0.48c0.8,0,1.6,0,2.4,0c0-0.08,0-0.16,0-0.24c0.16,0,0.32,0,0.48,0c0-0.08,0-0.16,0-0.24
			c0.8,0,1.6,0,2.4,0c0.473-0.04,0.48-0.24,0.48-0.24c0.96,0.08,1.92,0.16,2.88,0.24c0,0.16,0,0.32,0,0.48
			c0.479,0.144,0.207-0.034,0.48,0.24c0.854,0.564,0.416,1.075,0.96,1.68c-0.08,0.24-0.16,0.48-0.24,0.72c-2-0.08-4-0.16-6-0.24
			c-0.08-0.16-0.16-0.32-0.24-0.48c-1.76,0-3.52,0-5.28,0C143.878,6.639,143.986,6.716,144.495,6.313z M154.575,15.193
			c0,0.56,0,1.12,0,1.68c-0.621,0.119-1.06,0.244-1.92,0.24c0.082-1.181,0.482-1.021,0.72-1.92c0.24-0.08,0.48-0.16,0.72-0.24
			c0,0.08,0,0.16,0,0.24C154.256,15.193,154.415,15.193,154.575,15.193z M170.895,12.313c-0.16,0.08-0.32,0.16-0.48,0.24
			c0,1.84,0,3.68,0,5.52c0.001,0.004,0.357,0.194,0.24,0.72c-0.08,0-0.16,0-0.24,0c0,1.28,0,2.561,0,3.84c0.08,0,0.16,0,0.24,0
			c0.08,0.24,0.16,0.48,0.24,0.721c-0.16,0.079-0.32,0.159-0.48,0.239c-0.403,1.098,0.424,2.829-0.24,3.601
			c-0.007,1.562-0.437,1.523-0.96,2.4c-0.8,0-1.6,0-2.4,0c0,0.08,0,0.16,0,0.24c-3.439,0-6.88,0-10.32,0
			c-1.856,0-4.298,0.168-5.76-0.24c-1.6,0-3.2,0-4.8,0c0-0.08,0-0.16,0-0.24c-0.4-0.08-0.8-0.16-1.2-0.24
			c-0.667-1.77-0.583-5.138-0.24-7.2c0-2.32,0-4.64,0-6.96c-0.08,0-0.16,0-0.24,0c0-0.72,0-1.44,0-2.16c-0.08,0-0.16,0-0.24,0
			c0-0.08,0-0.16,0-0.24c0.08,0,0.16,0,0.24,0c0-0.64,0-1.28,0-1.92c0.4,0,0.8,0,1.2,0c0.08,0.16,0.16,0.32,0.24,0.48
			c1.68,0,3.36,0,5.04,0c0,0.08,0,0.16,0,0.24c0.24,0,0.48,0,0.72,0c0,0.32,0,0.64,0,0.96c-0.555,0.256-0.9,0.443-1.2,0.96
			c-0.24,0-0.48,0-0.72,0c0,0.16,0,0.32,0,0.48c-0.653,0.183-0.546,0.057-0.72,0.72c-0.16,0-0.32,0-0.48,0
			c-0.183,0.653-0.057,0.546-0.72,0.72c-0.043,0.62-0.033,0.827-0.24,1.2c-0.08,0-0.16,0-0.24,0c0,0.88,0,1.76,0,2.64
			c0.08,0,0.16,0,0.24,0c0.195,0.349,0.169,0.408,0.24,0.96c0.4,0.08,0.8,0.16,1.2,0.24c0,0.159,0,0.319,0,0.479
			c0.24,0,0.48,0,0.72,0c0,0.16,0,0.32,0,0.48c0.56,0.08,1.12,0.16,1.68,0.239c0,0.16,0,0.32,0,0.48c1.36,0,2.72,0,4.08,0
			c0.08-0.16,0.16-0.32,0.24-0.48c0.48-0.079,0.96-0.159,1.44-0.239c0-0.16,0-0.32,0-0.48c0.562-0.138,0.896-0.343,1.2-0.72
			c0.08,0,0.16,0,0.24,0c0-0.24,0-0.48,0-0.72c0.16,0,0.32,0,0.48,0c0.173-0.711,0.399-0.543,0.48-0.72
			c0.33-0.718-0.011-1.844,0.48-2.4c0-0.08,0-0.16,0-0.24c0.43,0.229,0.373,0.346,0.96,0.48c0,0.48,0,0.96,0,1.44
			c-0.16,0.08-0.32,0.16-0.48,0.24c-0.08,1.12-0.16,2.24-0.24,3.359c-0.16,0-0.32,0-0.48,0c-0.08,0.4-0.16,0.801-0.24,1.2
			c-0.96,0.08-1.92,0.16-2.88,0.24c0,0.08,0,0.16,0,0.24c-0.16-0.08-0.32-0.16-0.48-0.24c-0.64,0-1.28,0-1.92,0
			c0,0.08,0,0.16,0,0.24c-0.08,0-0.16,0-0.24,0c0-0.08,0-0.16,0-0.24c-0.56,0-1.12,0-1.68,0c-1.056-0.002-3.233,0.297-3.84-0.24
			c-0.64,0-1.28,0-1.92,0c-0.08,0.24-0.16,0.48-0.24,0.721c-0.16,0.079-0.32,0.159-0.48,0.239c0,0.641,0,1.28,0,1.92
			c0.16,0.08,0.32,0.16,0.48,0.24c0,0.16,0,0.32,0,0.48c0.88,0.08,1.76,0.159,2.64,0.239c0,0.16,0,0.32,0,0.48
			c1.52,0.08,3.041,0.16,4.56,0.24c0,0.08,0,0.16,0,0.24c0.16,0,0.32,0,0.48,0c0,0.08,0,0.16,0,0.24
			c1.309,0.451,3.595-0.266,4.32-0.48c1.92-0.08,3.84-0.16,5.76-0.24c0-0.16,0-0.32,0-0.48c1.021-0.12,1.078-0.512,1.92-0.72
			c0-0.16,0-0.32,0-0.479c0.16,0,0.32,0,0.48,0c0.091-0.85,0.34-1.166,0.48-1.92c-0.32,0-0.64,0-0.96,0c0-0.16,0-0.32,0-0.48
			c-1.158,0.011-2.56,0.06-3.36-0.24c0.069-1.213,0.499-1.488,0.72-2.399c0.32,0,0.64,0,0.96,0c0,0.159,0,0.319,0,0.479
			c0.804,0.186,0.921,0.537,1.68,0.72c0,0.16,0,0.32,0,0.48c0.48,0.08,0.96,0.16,1.44,0.24c0,0.08,0,0.16,0,0.239
			c0.72-0.079,1.44-0.159,2.16-0.239c0.142-1.101,0.793-1.868,0-2.641c-0.16-0.239-0.32-0.479-0.48-0.72c-0.24,0-0.48,0-0.72,0
			c0-0.16,0-0.32,0-0.48c-0.755-0.2-0.87-0.552-1.68-0.72c-0.08-0.4-0.16-0.8-0.24-1.2c-0.16,0-0.32,0-0.48,0c0-0.48,0-0.96,0-1.44
			c0.16,0,0.32,0,0.48,0c0.08-0.48,0.16-0.96,0.24-1.44c0.16-0.08,0.32-0.16,0.48-0.24c0-0.64,0-1.28,0-1.92
			c-0.4-0.08-0.8-0.16-1.2-0.24c0-0.16,0-0.32,0-0.48c0.96,0,1.92,0,2.88,0c0.08-0.16,0.16-0.32,0.24-0.48
			c0.4-0.08,0.8-0.16,1.2-0.24c0-0.16,0-0.32,0-0.48c0.08,0,0.16,0,0.24,0c0.155,0.568,0.068,0.45,0.48,0.72
			C170.895,10.873,170.895,11.594,170.895,12.313z M170.176,7.993c-1.04,0-2.08,0-3.12,0c0.016-0.598,0.007-0.864,0.24-1.2
			c0.08,0,0.16,0,0.24,0c0.416-0.613-0.251-0.474,0.72-0.72c0-0.16,0-0.32,0-0.48c0.919,0.209,1.544,0.637,2.64,0.72
			C170.76,7.308,170.395,7.15,170.176,7.993z"/>
		<path fill-rule="evenodd" clip-rule="evenodd" fill="#231815" d="M191.055,25.274c-0.24,0-0.48,0-0.721,0
			c0.264-0.555,0.566-0.782,0.721-1.44c0.16,0,0.32,0,0.48,0c0.08-0.72,0.16-1.44,0.24-2.16c0.159-0.08,0.319-0.16,0.479-0.24
			c0-0.479,0-0.96,0-1.439c0.079,0,0.159,0,0.239,0c0-0.16,0-0.32,0-0.48c0.08,0,0.16,0,0.24,0c0-0.319,0-0.64,0-0.959
			c0.123-0.316,0.121,0.078,0.24-0.24c0.463-0.089,0.48-0.24,0.48-0.24c0.479,0,0.959,0,1.439,0c0-0.08,0-0.16,0-0.24
			c0.32-0.08,0.641-0.16,0.96-0.24c0.145-0.479-0.033-0.207,0.24-0.48c-0.002-0.742-0.07-1.232-0.24-1.68
			c-0.724-0.304-1.276-0.496-2.399-0.48c0-0.16,0-0.32,0-0.48c-0.16,0-0.32,0-0.48,0c-0.131-1.533-0.535-3.567-1.439-4.32
			c0-0.08,0-0.16,0-0.24c-0.24,0-0.48,0-0.721,0c0-0.16,0-0.32,0-0.48c-0.32,0-0.64,0-0.96,0c0.716-0.632,2.316,0.126,3.36-0.24
			c0-0.08,0-0.16,0-0.24c0.16,0,0.32,0,0.48,0c0-0.08,0-0.16,0-0.24c0.399,0,0.799,0,1.199,0c0-0.08,0-0.16,0-0.24
			c0.4-0.08,0.801-0.16,1.2-0.24c0-0.08,0-0.16,0-0.24c0.362-0.229,0.407-0.469,0.72-0.72c0.062-1.264,0.338-2.115-0.72-2.4
			c0-0.16,0-0.32,0-0.48c-0.479,0-0.96,0-1.44,0c-0.08,0.16-0.16,0.32-0.24,0.48c-0.479,0-0.959,0-1.439,0c0,0.08,0,0.16,0,0.24
			c-1.486,0.427-4.029-0.175-5.279-0.24c0-0.16,0-0.32,0-0.48c-0.619-0.032-0.832-0.034-1.201-0.24c0-0.08,0-0.16,0-0.24
			c-1.137-0.475-1.926,0.311-2.64-0.72c-1.414,0.032-1.341,0.471-2.159,0.96c0,0.4,0,0.8,0,1.2c-0.08,0-0.16,0-0.24,0
			c0.08,0.88,0.16,1.76,0.24,2.64c0.159,0,0.319,0,0.479,0c0.127,1.009,0.34,0.78,0.72,1.44c1.902-0.002,3.961-0.101,5.52-0.24
			c-0.182,0.711-0.389,0.59-0.479,1.44c-0.159,0-0.319,0-0.479,0c0,0.48,0,0.96,0,1.44c0.16,0.08,0.32,0.16,0.479,0.24
			c0,0.56,0,1.12,0,1.68c0.08,0,0.16,0,0.24,0c0.133,0.599-0.633,2.901-0.24,3.84c0.16,0.08,0.32,0.16,0.479,0.24
			c0.174,0.398,0.173,2.718,0,3.12c-0.159,0.08-0.319,0.16-0.479,0.239c-0.399,0.971,0.366,2.435-0.239,3.12
			c-0.08,0.24-0.16,0.48-0.24,0.721c-0.721,0-1.44,0-2.16,0c0-0.4,0-0.801,0-1.2c0.16-0.08,0.32-0.16,0.48-0.24
			c0-0.32,0-0.64,0-0.96c0.079,0,0.159,0,0.239,0c0-1.04,0-2.08,0-3.12c0.08-1.28,0.16-2.56,0.24-3.84c-0.08,0-0.16,0-0.24,0
			c0-0.64,0-1.28,0-1.92c-0.16-0.08-0.319-0.16-0.479-0.24c0-0.16,0-0.32,0-0.48c-0.4-0.08-0.801-0.16-1.201-0.24
			c0-0.08,0-0.16,0-0.24c-0.239,0.08-0.479,0.16-0.719,0.24c0,0.08,0,0.16,0,0.24c-0.32,0-0.641,0-0.961,0c0,0.08,0,0.16,0,0.24
			c-0.496,0.514-0.441,1.558-0.24,2.64c0.08,0,0.16,0,0.24,0c0,0.08,0,0.16,0,0.24c-0.08,0-0.16,0-0.24,0c0,0.72,0,1.44,0,2.16
			c0.214,0.758,0.867,2.859,0.48,4.08c-0.08,0-0.16,0-0.24,0c-0.08,0.64-0.16,1.28-0.24,1.92c-1.176,0.018-1.363,0.285-2.159,0.48
			c-0.183,0.711-0.39,0.59-0.479,1.439c-0.16,0-0.32,0-0.48,0c-0.011,1.035-0.02,2.191,0.24,2.88c0.08,0,0.16,0,0.24,0
			c0,0.08,0,0.16,0,0.24c0.319,0,0.639,0,0.959,0c0.08,0.16,0.16,0.32,0.24,0.48c0.93,0.4,4.539-0.236,4.561-0.24
			c1.203-0.258,2.65-0.01,3.6-0.48c0.08-0.16,0.16-0.32,0.24-0.48c0.56,0,1.119,0,1.68,0c0-0.08,0-0.16,0-0.24c0.16,0,0.32,0,0.48,0
			c0-0.08,0-0.16,0-0.24c0.479,0,0.959,0,1.439,0c0.009-0.004,0.457-0.572,0.721-0.719c0.01-0.974-0.002-2.003-0.24-2.64
			C192.671,25.01,191.465,24.894,191.055,25.274z"/>
		<path fill-rule="evenodd" clip-rule="evenodd" fill="#231815" d="M210.735,12.553c1.096,0,3.445,0.321,4.08-0.24
			c1.549-0.083,1.561-0.962,2.4-1.68c-0.004-1.347-0.284-1.411-0.721-2.16c-2.291,0.018-3.104,0.491-5.279,0.48
			c0,0.16,0,0.32,0,0.48c-1.04,0-2.08,0-3.12,0c0-0.16,0-0.32,0-0.48c-0.24,0-0.479,0-0.72,0c-0.102-0.558-0.465-1.336-0.24-2.16
			c0.08,0,0.16,0,0.24,0c0-0.8,0-1.6,0-2.4c-0.08,0-0.16,0-0.24,0c0-0.24,0-0.48,0-0.72c-0.16,0-0.32,0-0.48,0c0-0.16,0-0.32,0-0.48
			c-0.32,0-0.64,0-0.959,0c-0.209,0.89-0.611,0.937-0.721,1.92c-0.16,0-0.32,0-0.48,0c-0.183,0.653-0.057,0.546-0.719,0.72
			c-0.2,0.805-0.607,1.052-1.441,1.2c0,0.16,0,0.32,0,0.48c-1.555,0.168-1.85,1.076-2.879,1.68c-0.08,0.48-0.16,0.96-0.24,1.44
			c-0.16,0-0.32,0-0.48,0c0,0.56,0,1.12,0,1.68C202.309,12.671,206.776,12.553,210.735,12.553z"/>
		<path fill-rule="evenodd" clip-rule="evenodd" fill="#231815" d="M94.815,10.633c0.96,0,1.92,0,2.88,0c0-0.08,0-0.16,0-0.24
			c0.24-0.08,0.48-0.16,0.72-0.24c0.08,0.16,0.16,0.32,0.24,0.48c0.96,0,1.92,0,2.88,0c0.4,0,0.8,0,1.2,0c0-0.08,0-0.16,0-0.24
			c0.245-0.134,0.905-0.45,1.44-0.24c0.08,0.16,0.16,0.32,0.24,0.48c0.48,0,0.96,0,1.44,0c0-0.16,0-0.32,0-0.48
			c0.72-0.08,1.44-0.16,2.16-0.24c0-0.16,0-0.32,0-0.48c1.249-0.024,0.937-0.086,1.68-0.48c0-0.24,0-0.48,0-0.72
			c0.16,0,0.32,0,0.48,0c0-0.48,0-0.96,0-1.44c-0.289-0.234-0.543-0.622-0.72-0.96c-0.72,0-1.44,0-2.16,0
			c-0.08,0.16-0.16,0.32-0.24,0.48c-1.68,0-3.36,0-5.04,0c-0.88,0-1.76,0-2.64,0c0-0.08,0-0.16,0-0.24c-0.24,0-0.48,0-0.72,0
			c0-0.08,0-0.16,0-0.24c-0.33-0.006-0.389,0.389-0.96,0.24c0-0.08,0-0.16,0-0.24c-1.04-0.08-2.08-0.16-3.12-0.24
			c-0.073,0.551-0.044,0.611-0.24,0.96c-0.08,0-0.16,0-0.24,0c0,0.96,0,1.92,0,2.88c0.16,0,0.32,0,0.48,0
			C94.656,9.833,94.736,10.233,94.815,10.633z"/>
		<path fill-rule="evenodd" clip-rule="evenodd" fill="#231815" d="M108.256,10.873c-0.603-0.542-1.954-0.047-2.88,0
			c0,0.16,0,0.32,0,0.48c-0.62,0.038-0.828,0.035-1.2,0.24c0,0.08,0,0.16,0,0.24c-0.493,0.2-1.646-0.126-1.92-0.24
			c0-0.08,0-0.16,0-0.24c-1.12,0-2.24,0-3.36,0c0,0.08,0,0.16,0,0.24c-0.339,0.008,0.095-0.186-0.24-0.24c-0.88,0-1.76,0-2.64,0
			c-0.08,0.4-0.16,0.8-0.24,1.2c-0.16,0-0.32,0-0.48,0c0,2.799,0,5.6,0,8.4c0.08,0,0.16,0,0.24,0c0,0.16,0,0.32,0,0.479
			c0.08,0,0.16,0,0.24,0c0.08,0.641,0.16,1.28,0.24,1.921c0.16,0,0.32,0,0.48,0c0,0.159,0,0.319,0,0.479c0.4,0.08,0.8,0.16,1.2,0.24
			c0,0.08,0,0.16,0,0.24c1.68,0,3.36,0,5.04,0c0.08-0.16,0.16-0.32,0.24-0.48c0.64,0,1.28,0,1.92,0c0.08-0.16,0.16-0.32,0.24-0.479
			c0.72,0,1.44,0,2.16,0c0,0,0.041-0.162,0.48-0.24c0.08-0.32,0.16-0.641,0.24-0.96c0.16,0,0.32,0,0.48,0c0-0.4,0-0.8,0-1.2
			c0.16-0.08,0.32-0.16,0.48-0.24c0.08-0.64,0.16-1.28,0.24-1.92c0.16,0,0.32,0,0.48,0c0.08-1.244,1.1-3.103,0-3.84
			C109.768,12.893,109.893,11.26,108.256,10.873z M105.615,19.753c-0.963,0.917-4.61,0.397-6,0.24c0-0.24,0-0.48,0-0.72
			c2.08,0,4.16,0,6.24,0C105.711,19.752,105.889,19.48,105.615,19.753z M105.375,15.673c-0.64,0-1.28,0-1.92,0c0,0.08,0,0.16,0,0.24
			c-1.44-0.08-2.88-0.16-4.32-0.24c0-0.16,0-0.32,0-0.48c-0.24,0-0.48,0-0.72,0c0.145-0.479-0.033-0.207,0.24-0.48
			c0.405-0.361,1.396-0.239,2.16-0.24c1.76,0,3.521,0,5.28,0C105.916,15.151,105.666,15.162,105.375,15.673z"/>
		<path fill-rule="evenodd" clip-rule="evenodd" fill="#231815" d="M298.095,18.073c0-0.56,0-1.12,0-1.68c-0.08,0-0.16,0-0.24,0
			c0-0.16,0-0.32,0-0.48c-0.08,0-0.16,0-0.24,0c-0.079-0.64-0.159-1.28-0.239-1.92c-0.96-0.08-1.92-0.16-2.88-0.24
			c0,0,0.046-0.281-0.48-0.24c-0.549,0.043-1.982,0.551-2.88,0.24c0-0.08,0-0.16,0-0.24c-0.16,0-0.32,0-0.48,0c0-0.08,0-0.16,0-0.24
			c-1.039,0-2.08,0-3.119,0c0,0.16,0,0.32,0,0.48c-0.881,0-1.761,0-2.641,0c-0.08-0.16-0.16-0.32-0.24-0.48c-0.72,0-1.439,0-2.159,0
			c-0.08-0.16-0.16-0.32-0.24-0.48c-0.561,0-1.12,0-1.681,0c-0.079,0.16-0.159,0.32-0.239,0.48c-0.4,0-0.8,0-1.2,0
			c0,0.08,0,0.16,0,0.24c-0.08,0-0.16,0-0.24,0c0-0.08,0-0.16,0-0.24c-2,0-4,0-6,0c-0.8,0-1.6,0-2.399,0c0,0.08,0,0.16,0,0.24
			c-0.16,0-0.32,0-0.48,0c0,0.08,0,0.16,0,0.24c-1.627,0.559-3.754-0.55-4.8,0.48c-0.404,0.274-0.334,0.146-0.48,0.72
			c-0.16,0-0.319,0-0.479,0c-0.08,0.64-0.16,1.28-0.24,1.92c-0.16,0-0.32,0-0.479,0c0,0.48,0,0.96,0,1.44c-0.08,0-0.16,0-0.24,0
			c0,0.16,0,0.32,0,0.48c-0.08,0-0.16,0-0.24,0c0,0.88,0,1.76,0,2.64c0.16,0,0.32,0,0.48,0c0.093,0.775,0.217,0.702,0.479,1.2
			c0.72,0,1.44,0,2.16,0c0.08-0.16,0.16-0.319,0.24-0.479c0.239,0,0.479,0,0.72,0c0-0.08,0-0.16,0-0.24c0.08,0,0.16,0,0.24,0
			c0-0.32,0-0.64,0-0.96c0.16-0.08,0.319-0.16,0.479-0.24c0-1.04,0-2.08,0-3.12c0.16,0,0.32,0,0.48,0
			c0.08-0.48,0.16-0.96,0.239-1.44c0.4-0.08,0.801-0.16,1.2-0.24c0-0.08,0-0.16,0-0.24c1.6,0,3.2,0,4.8,0c0,0.08,0,0.16,0,0.24
			c0.16,0,0.32,0,0.48,0c0,0.08,0,0.16,0,0.24c2.16,0,4.32,0,6.48,0c1.52,0,3.04,0,4.56,0c0.08-0.16,0.16-0.32,0.24-0.48
			c0.56,0,1.12,0,1.68,0c0,0.08,0,0.16,0,0.24c0.16,0,0.32,0,0.48,0c0,0.08,0,0.16,0,0.24c0.64,0,1.279,0,1.92,0
			c0.08-0.16,0.159-0.32,0.239-0.48c0.641,0,1.28,0,1.92,0c0,0.16,0,0.32,0,0.48c0.16,0,0.32,0,0.48,0c0.08,0.8,0.16,1.6,0.24,2.4
			c-0.058,0.37-0.596,3.23-0.24,3.839c0.24,0.08,0.48,0.16,0.72,0.24c0,0.16,0,0.32,0,0.48c0.479,0.145,0.207-0.033,0.48,0.24
			c1.04,0,2.08,0,3.12,0c0.08-0.24,0.16-0.48,0.239-0.721c0.16,0,0.32,0,0.48,0c0.086-0.713,0.981-3.111,0.479-4.32
			C298.416,18.233,298.256,18.153,298.095,18.073z"/>
		<path fill-rule="evenodd" clip-rule="evenodd" fill="#231815" d="M220.575,27.674c-0.079-0.16-0.159-0.32-0.239-0.48
			c-0.32,0-0.641,0-0.96,0c0-0.08,0-0.16,0-0.24c-0.32,0-0.641,0-0.961,0c-0.08-0.16-0.159-0.32-0.239-0.48c-0.479,0-0.96,0-1.44,0
			c0-0.08,0-0.159,0-0.239c-0.16,0-0.32,0-0.479,0c0-0.08,0-0.16,0-0.24c-0.72-0.08-1.44-0.16-2.16-0.24
			c-0.08-0.16-0.16-0.32-0.24-0.479c-0.239,0-0.479,0-0.72,0c-0.803-0.341-0.722-0.67-1.92-0.721c0-0.16,0-0.319,0-0.479
			c-1.009-0.127-0.781-0.34-1.439-0.72c0.079-0.641,0.159-1.28,0.239-1.921c0.16,0,0.319,0,0.479,0
			c0.416-1.524,1.83-1.947,1.92-3.839c0.16,0,0.32,0,0.48,0c0-0.24,0-0.48,0-0.72c-0.16,0-0.32,0-0.48,0c0-0.24,0-0.48,0-0.72
			c-0.08,0-0.159,0-0.239,0c0-0.08,0-0.16,0-0.24c-0.399-0.08-0.8-0.16-1.2-0.24c0-0.16,0-0.32,0-0.48c-0.24,0-0.48,0-0.72,0
			c0,0.16,0,0.32,0,0.48c-1.009,0.127-0.78,0.34-1.44,0.72c-0.08,0.4-0.16,0.8-0.24,1.2c-0.16,0-0.319,0-0.479,0c0,0.4,0,0.8,0,1.2
			c-0.24,0.08-0.479,0.16-0.72,0.24c0,0.32,0,0.64,0,0.96c-1.006,0.19-1.393,0.194-2.4,0c0-0.16,0-0.32,0-0.48
			c-0.24,0-0.48,0-0.72,0c-0.1-0.723-0.147-0.774-0.479-1.2c-0.08,0-0.16,0-0.24,0c0-0.16,0-0.32,0-0.48
			c-0.16-0.08-0.32-0.16-0.48-0.24c0-0.16,0-0.32,0-0.48c-0.24-0.16-0.48-0.32-0.721-0.48c0-0.16,0-0.32,0-0.48
			c-0.102-0.152-0.317-0.182-0.479-0.48c-1.009,0.127-0.78,0.34-1.44,0.72c0.08,1.04,0.16,2.08,0.24,3.12c0.16,0,0.32,0,0.48,0
			c0.08,0.24,0.16,0.48,0.24,0.721c0.08,0,0.16,0,0.24,0c0,0.159,0,0.319,0,0.479c0.08,0,0.16,0,0.239,0c0,0.16,0,0.32,0,0.48
			c0.16,0.08,0.32,0.16,0.479,0.239c0.08,0.4,0.16,0.801,0.24,1.2c0.16,0.08,0.32,0.16,0.48,0.24c0,0.24,0,0.48,0,0.72
			c-0.24,0.16-0.48,0.32-0.721,0.48c0,0.16,0,0.319,0,0.479c-0.079,0-0.159,0-0.239,0c-0.16,0.24-0.319,0.48-0.479,0.721
			c-0.16,0-0.32,0-0.48,0c0,0.159,0,0.319,0,0.479c-0.641,0.08-1.28,0.16-1.92,0.24c0,0.16,0,0.32,0,0.479c-1.28,0-2.561,0-3.84,0
			c0,0.16,0,0.32,0,0.48c-0.16,0-0.32,0-0.48,0c-0.01,1.646,0.183,1.476,0.721,2.4c0.865,0.162,3.453,1.178,4.56,0.721
			c0.08-0.16,0.159-0.32,0.239-0.48c0.48,0,0.961,0,1.44,0c0-0.08,0-0.16,0-0.24c0.24,0,0.479,0,0.72,0c0-0.08,0-0.16,0-0.24
			c0.342-0.205,0.413-0.168,0.961-0.24c0-0.16,0-0.32,0-0.48c0.533-0.148,0.6-0.197,0.959-0.479c0-0.08,0-0.16,0-0.24
			c1.064-0.723,1.566-0.611,2.881-0.48c0.319,1.146,1.137,1.019,1.439,2.16c0.32,0.08,0.641,0.16,0.961,0.24c0,0.16,0,0.32,0,0.48
			c1.248,0.178,0.679,0.566,1.92,0.719c0,0.16,0,0.32,0,0.48c0.479,0.08,0.959,0.16,1.439,0.24c0,0.16,0,0.32,0,0.48
			c0.725,0.07,1.6,0.32,2.16,0.479c1.225,0.352,3.143-0.303,4.08-0.479c0-0.16,0-0.32,0-0.48c0.652-0.184,0.546-0.057,0.72-0.721
			c0.16,0,0.32,0,0.479,0c0-0.16,0-0.32,0-0.479c0.16-0.08,0.32-0.16,0.48-0.24c0.344-0.74,0.072-1.68,0-2.4
			C220.895,27.674,220.735,27.674,220.575,27.674z"/>
		<path fill-rule="evenodd" clip-rule="evenodd" fill="#231815" d="M289.216,21.433c0,0.16,0,0.32,0,0.48c-0.88,0-1.76,0-2.641,0
			c-0.021-0.746-0.116-1.777,0.24-2.16c0.039-1.345-0.143-1.922-1.2-2.16c0-0.16,0-0.32,0-0.48c-1.119,0-2.239,0-3.359,0
			c0,0.16,0,0.32,0,0.48c-0.62-0.036-0.829-0.035-1.2-0.24c0-0.08,0-0.16,0-0.24c-1.6,0-3.2,0-4.8,0
			c-0.808-0.001-1.964,0.143-2.4-0.24c-1.054-0.038-1.455-0.141-1.68,0.72c-0.16,0-0.32,0-0.48,0c0,0.24,0,0.48,0,0.72
			c-0.159,0-0.319,0-0.479,0c0,0.24,0,0.48,0,0.72c0.08,0,0.16,0,0.24,0c0,0.08,0,0.16,0,0.24c0.479,0.08,0.96,0.159,1.439,0.239
			c0,0.16,0,0.32,0,0.48c1.92,0.08,3.841,0.16,5.76,0.24c0,0.159,0,0.319,0,0.479c0.16,0,0.32,0,0.48,0c0,0.24,0,0.48,0,0.72
			c-0.16,0-0.32,0-0.48,0c0,0.16,0,0.32,0,0.48c-0.319,0-0.64,0-0.96,0c0,0.08,0,0.16,0,0.24c-0.88,0-1.76,0-2.64,0
			c0-0.08,0-0.16,0-0.24c-0.935-0.261-2.296,0.15-2.88,0.24c-0.4,0-0.8,0-1.2,0c0-0.08,0-0.16,0-0.24
			c-0.975-0.268-2.211,0.121-2.88,0.24c-0.145,0.479,0.033,0.206-0.24,0.479c0.024,1.249,0.086,0.937,0.48,1.681
			c3.039,0.079,6.08,0.159,9.12,0.239c0,0.08,0,0.16,0,0.24c0.56,0.08,1.12,0.16,1.68,0.24c0,0.479,0,0.96,0,1.439
			c-0.16,0-0.32,0-0.48,0c-0.136,1.113-0.613,1.285-0.72,2.4c-0.653,0.184-0.546,0.057-0.72,0.721
			c-1.043,0.225-1.22,0.666-2.4,0.721c0,0.158,0,0.318,0,0.479c-1.439,0-2.88,0-4.319,0c-0.08-0.16-0.16-0.32-0.24-0.479
			c-0.4,0-0.8,0-1.2,0c-0.08-0.16-0.16-0.32-0.24-0.48c-0.96,0-1.92,0-2.88,0c0,0.16,0,0.32,0,0.48c-0.16,0-0.32,0-0.479,0
			c0,0.158,0,0.318,0,0.479c-0.16,0-0.32,0-0.48,0c-0.08,0.641-0.16,1.281-0.24,1.92c0.08,0,0.16,0,0.24,0c0,0.16,0,0.32,0,0.48
			c0.08,0,0.16,0,0.24,0c0.08,0.24,0.16,0.48,0.24,0.721c0.399,0.08,0.8,0.16,1.199,0.24c0,0.16,0,0.318,0,0.479
			c0.758,0.02,1.145,0.02,1.681,0.24c0,0.08,0,0.16,0,0.24c1.6,0,3.2,0,4.8,0c0-0.08,0-0.16,0-0.24c0.16,0,0.32,0,0.479,0
			c0-0.08,0-0.16,0-0.24c0.641,0,1.28,0,1.921,0c0.079-0.16,0.159-0.318,0.239-0.479c0.32,0,0.641,0,0.96,0c0-0.08,0-0.16,0-0.24
			c0.24,0,0.48,0,0.721,0c0-0.08,0-0.16,0-0.24c0.34-0.205,0.412-0.174,0.96-0.24c0.08-0.24,0.159-0.48,0.239-0.721
			c0.24,0,0.48,0,0.721,0c0-0.16,0-0.32,0-0.479c0.16,0,0.319,0,0.479,0c0.154-0.547,0.208-0.582,0.48-0.961c0.08,0,0.16,0,0.239,0
			c0-0.24,0-0.48,0-0.721c0.16-0.08,0.32-0.16,0.48-0.238c0-0.4,0-0.801,0-1.201c0.16-0.08,0.32-0.16,0.48-0.24
			c0.079-0.799,0.159-1.6,0.239-2.4c0.16,0,0.32,0,0.48,0c0.093-0.774,0.218-0.701,0.479-1.199c2.32-0.08,4.641-0.16,6.96-0.24
			c0.08-0.16,0.16-0.32,0.24-0.48c0.16,0,0.32,0,0.48,0c0-0.08,0-0.16,0-0.239c0.159,0,0.319,0,0.479,0c0-0.08,0-0.16,0-0.24
			c0.24-0.08,0.48-0.16,0.72-0.24c0.145-0.479-0.033-0.207,0.24-0.479c-0.002-1.079-0.158-1.315-0.479-1.921
			C290.655,21.433,289.935,21.433,289.216,21.433z M283.695,21.433c-0.159,0-0.319,0-0.479,0c0,0.16,0,0.32,0,0.48
			c-0.32,0-0.641,0-0.96,0c0-0.16,0-0.32,0-0.48c-0.08,0-0.16,0-0.24,0c0.16-0.64,0.32-1.279,0.48-1.92c0.239,0,0.479,0,0.72,0
			c0,0.24,0,0.48,0,0.721c0.16,0,0.32,0,0.479,0C283.695,20.633,283.695,21.033,283.695,21.433z"/>
		<path fill-rule="evenodd" clip-rule="evenodd" fill="#231815" d="M332.416,24.314c-0.08,0-0.16,0-0.24,0
			c-0.08-0.801-0.16-1.601-0.24-2.4c-0.16,0-0.32,0-0.479,0c0-0.16,0-0.32,0-0.48c-0.933-0.059-1.7-0.862-2.641-0.479
			c-0.08,0.16-0.16,0.32-0.24,0.479c-0.319,0-0.64,0-0.96,0c0,0.08,0,0.16,0,0.24c-0.159,0-0.319,0-0.479,0c0,0.08,0,0.16,0,0.24
			c-1.76,0-3.521,0-5.28,0c-0.08-0.16-0.16-0.32-0.24-0.48c-0.88,0-1.76,0-2.64,0c0-0.079,0-0.159,0-0.239c-0.32,0-0.64,0-0.96,0
			c0-0.08,0-0.16,0-0.24c-0.32,0.08-0.64,0.16-0.96,0.24c0,0.08,0,0.16,0,0.239c-0.72,0-1.44,0-2.16,0c0,0.08,0,0.16,0,0.24
			c-0.523,0.113-0.719-0.239-0.72-0.24c-1.12,0-2.24,0-3.36,0c0,0.16,0,0.32,0,0.48c-0.652,0.183-0.546,0.057-0.72,0.72
			c-0.16,0-0.32,0-0.48,0c0,0.4,0,0.8,0,1.2c-0.079,0-0.159,0-0.239,0c-0.356,1.265,0.094,4.108,0.239,5.04
			c-0.079,0.24-0.159,0.48-0.239,0.721c-0.192,1.381,0.139,2.766,0.239,3.84c0.16,0,0.32,0,0.48,0c0.08,0.16,0.16,0.32,0.24,0.48
			c2,0.08,4,0.16,6,0.24c0,0.08,0,0.16,0,0.238c0.16,0,0.319,0,0.479,0c0,0.08,0,0.16,0,0.24c1.68,0,3.36,0,5.04,0
			c1.52,0,3.04,0,4.561,0c0.08-0.16,0.159-0.318,0.239-0.479c0.721-0.08,1.44-0.16,2.16-0.24c0.08-0.16,0.16-0.32,0.24-0.48
			c0.64-0.08,1.28-0.16,1.92-0.24c0-0.16,0-0.32,0-0.48c0.16,0,0.32,0,0.48,0c0-0.16,0-0.32,0-0.479c0.159,0,0.319,0,0.479,0
			c0.08-1.041,0.16-2.08,0.24-3.121c0.16-0.08,0.32-0.16,0.479-0.24c0-1.279,0-2.56,0-3.839c-0.159,0-0.319,0-0.479,0
			C332.256,24.793,332.336,24.553,332.416,24.314z M328.336,29.594c-0.08,0-0.16,0-0.24,0c-0.08,0.4-0.16,0.799-0.24,1.199
			c-0.448,0.211-0.7,0.311-0.96,0.721c-0.72-0.08-1.439-0.16-2.16-0.24c0,0.08,0,0.16,0,0.24c-1.279,0-2.56,0-3.84,0
			c0-0.08,0-0.16,0-0.24c-0.16,0-0.32,0-0.479,0c0-0.08,0-0.16,0-0.24c-0.88,0-1.761,0-2.641,0c0,0.16,0,0.32,0,0.48
			c-0.825,0.023-2.203,0.164-2.64-0.24c-0.653-0.184-0.547-0.057-0.72-0.721c-0.16,0-0.32,0-0.48,0
			c-0.08-0.559-0.16-1.119-0.24-1.68c0.561,0,1.12,0,1.681,0c0,0.08,0,0.16,0,0.24c0.16,0,0.319,0,0.479,0c0,0.08,0,0.16,0,0.24
			c0.979,0.34,3.898-0.078,4.561-0.24c0.605-0.148,0.869,0.188,1.199,0.24c1.601,0,3.2,0,4.801,0c0-0.16,0-0.32,0-0.48
			c0.239,0,0.479,0,0.72,0c0-0.16,0-0.32,0-0.48c0.16,0,0.32,0,0.479,0c0-0.238,0-0.479,0-0.719c0.24,0,0.48,0,0.721,0
			C328.336,28.312,328.336,28.953,328.336,29.594z M328.336,25.513c-2.37,0.428-5.402,0.24-8.641,0.24c-1.199,0-2.399,0-3.6,0
			c-0.08-0.16-0.16-0.32-0.24-0.479c-0.479-0.08-0.96-0.16-1.439-0.24c0-0.16,0-0.32,0-0.48c-0.16,0-0.32,0-0.48,0
			c0-0.239,0-0.479,0-0.72c0.563-0.055,0.601-0.072,0.96-0.24c0-0.08,0-0.16,0-0.239c0.401,0.038,0.404,0.452,0.48,0.479
			c2.079,0,4.16,0,6.239,0c0.16-0.08,0.32-0.16,0.48-0.24c0,0.08,0,0.16,0,0.24c0.4,0,0.8,0,1.2,0c0,0.08,0,0.16,0,0.24
			c0.16,0,0.319,0,0.479,0c0,0.08,0,0.16,0,0.24c0.909,0.323,2.108-0.06,2.4-0.48c0.854-0.007,1.624,0.038,2.16,0.24
			C328.336,24.553,328.336,25.033,328.336,25.513z"/>
		<path fill-rule="evenodd" clip-rule="evenodd" fill="#231815" d="M98.415,25.033c-0.72,0-1.44,0-2.16,0
			c-0.08-0.16-0.16-0.32-0.24-0.48c-0.4,0-0.8,0-1.2,0c-0.08,0.32-0.16,0.641-0.24,0.96c-0.16,0.08-0.32,0.16-0.48,0.24
			c0,0.88,0,1.76,0,2.639c0.16,0,0.32,0,0.48,0c0.147,0.584,0.253,0.529,0.48,0.961c0.8-0.08,1.6-0.16,2.4-0.24
			c0,0.08,0,0.16,0,0.24c0.4,0,0.8,0,1.2,0c0,0,0.014-0.316,0.48-0.24c0,0.08,0,0.16,0,0.24c0.88,0.08,1.76,0.16,2.64,0.24
			c-0.066,0.941-0.674,4.305,0,5.039c0.03,1.141,0.163,1.08,0.96,1.441c0.087,0.039,0.173,0.416,0.72,0.24
			c0.08-0.16,0.16-0.32,0.24-0.48c0.16,0,0.32,0,0.48,0c0-0.16,0-0.32,0-0.48c0.16,0,0.32,0,0.48,0c0-0.48,0-0.961,0-1.439
			c0.08,0,0.16,0,0.24,0c0-0.16,0-0.32,0-0.48c0.08,0,0.16,0,0.24,0c0-0.641,0-1.279,0-1.92c-0.08,0-0.16,0-0.24,0
			c0-0.16,0-0.32,0-0.48c-0.08,0-0.16,0-0.24,0c0-0.48,0-0.959,0-1.439c0.16,0,0.32,0,0.48,0c0-0.24,0-0.48,0-0.721
			c0.16,0,0.32,0,0.48,0c0.08-0.16,0.16-0.32,0.24-0.48c0.8-0.078,1.6-0.158,2.4-0.238c0.184-0.086-0.005-0.314,0.72-0.48
			c0.141-0.743,0.254-1.603,0.24-2.64c-3.6,0.08-7.201,0.16-10.8,0.24C98.415,25.194,98.415,25.114,98.415,25.033z"/>
	</g>
	<g>
		<path fill="#231815" d="M288.604,54.654c0.298-0.32,0.447-0.627,0.447-0.922c0-0.268-0.084-0.806-0.253-1.614
			c-0.108-0.519-0.223-1.024-0.344-1.519c-0.221-0.869-0.384-1.383-0.489-1.543c-0.106-0.16-0.313-0.24-0.62-0.24v-0.318
			c0.411-0.033,0.843-0.088,1.298-0.161c0.453-0.073,0.656-0.106,0.609-0.097l0.09-0.014c0.104,0.272,0.264,0.813,0.478,1.618
			c0.214,0.807,0.382,1.538,0.503,2.196l0.052,0.271l0.246-0.376c0.203-0.308,0.405-0.675,0.606-1.106
			c0.201-0.43,0.302-0.719,0.302-0.865c0-0.074-0.021-0.145-0.065-0.211c-0.043-0.066-0.114-0.131-0.213-0.191l-0.104-0.064
			c-0.073-0.047-0.143-0.107-0.208-0.182c-0.1-0.125-0.148-0.26-0.148-0.402c0-0.168,0.072-0.325,0.217-0.471
			c0.145-0.145,0.328-0.217,0.549-0.217c0.194,0,0.381,0.064,0.558,0.191s0.266,0.332,0.266,0.613c0,0.467-0.249,1.17-0.745,2.107
			c-0.373,0.701-0.805,1.398-1.298,2.096c-0.692,0.969-1.317,1.686-1.878,2.15s-1.127,0.697-1.703,0.697
			c-0.246,0-0.45-0.074-0.612-0.221c-0.162-0.148-0.243-0.314-0.243-0.5c0-0.195,0.076-0.35,0.227-0.464
			c0.152-0.114,0.322-0.172,0.513-0.172c0.198,0,0.424,0.067,0.675,0.204c0.25,0.137,0.42,0.205,0.506,0.205
			C288.044,55.135,288.305,54.974,288.604,54.654z"/>
	</g>
</g>
</svg>
